<svg width="47" height="41" viewBox="0 0 47 41" fill="none" xmlns="http://www.w3.org/2000/svg">
<g id="Export 1" clip-path="url(#clip0_1_340)">
<g id="p6I40W.tif">
<path id="Vector" d="M47.0006 26.7521C46.931 26.8281 46.8747 26.9436 46.7886 26.97C46.5401 27.0492 46.2486 27.1945 46.0399 27.1252C45.8312 27.0558 45.6689 26.7653 45.5496 26.5409C45.4801 26.4088 45.5331 26.2108 45.5331 26.0457C45.5331 18.6215 45.5132 11.1907 45.5496 3.77635C45.5682 3.46362 45.5198 3.15053 45.4076 2.85788C45.2954 2.56524 45.1219 2.29973 44.8989 2.07899C44.6758 1.85825 44.4081 1.68733 44.1137 1.57758C43.8192 1.46784 43.5047 1.42178 43.191 1.44246C30.0663 1.47327 16.9415 1.47327 3.81678 1.44246C2.35921 1.44246 1.4416 2.40639 1.44823 3.81596C1.48798 11.8608 1.4681 19.9089 1.4681 27.9537C1.4681 29.5284 2.24658 30.3041 3.83665 30.3041H7.00024C7.82841 30.3041 8.04042 30.5055 8.0636 31.311C8.12765 33.4391 8.19169 35.5683 8.25574 37.6986C8.25574 37.801 8.25574 37.9033 8.27893 38.1212C8.7427 37.5996 9.12034 37.1309 9.54768 36.7149C9.73371 36.5234 9.98337 36.4061 10.25 36.3848C10.3848 36.3921 10.5146 36.438 10.624 36.5169C10.7333 36.5959 10.8175 36.7046 10.8664 36.83C10.9154 36.9554 10.927 37.0922 10.8999 37.224C10.8728 37.3558 10.8082 37.4771 10.7137 37.5732C9.87232 38.5635 9.01434 39.5308 8.11992 40.4683C8.0103 40.5518 7.88471 40.6122 7.75085 40.6457C7.61699 40.6792 7.47767 40.6851 7.34144 40.663C7.01018 40.6135 6.86774 40.3131 6.8578 39.9731C6.80811 38.3226 6.74185 36.672 6.70542 35.0016C6.68223 33.942 6.70542 32.879 6.70542 31.7632H3.60477C3.08229 31.7899 2.56096 31.6921 2.08397 31.478C1.60697 31.2638 1.18805 30.9395 0.861886 30.5319C0.522357 30.0006 0.235034 29.4379 0.00390625 28.8516V2.92796C0.0245242 2.90677 0.0413329 2.8822 0.0535966 2.85534C0.603498 0.897774 1.7828 -0.000130732 3.80684 -0.000130732H43.4262C44.2364 -0.0263983 45.0299 0.231992 45.6682 0.729846C46.3065 1.2277 46.7488 1.93332 46.9178 2.72329C46.9396 2.7937 46.9673 2.86216 47.0006 2.92796V26.7521Z" fill="black"/>
<path id="Vector_2" d="M46.9996 28.9408C46.231 29.634 45.4758 30.3372 44.6807 31.0073C44.5669 31.0905 44.4827 31.2077 44.4403 31.3419C44.398 31.4761 44.3999 31.6203 44.4455 31.7534C44.6542 32.5786 44.8232 33.4039 45.0186 34.2391C45.0791 34.3933 45.087 34.563 45.0413 34.7222C44.9956 34.8814 44.8987 35.0212 44.7655 35.1201C44.6323 35.2191 44.4702 35.2718 44.3041 35.2701C44.138 35.2683 43.977 35.2123 43.8459 35.1106C43.1105 34.6748 42.3619 34.2655 41.6463 33.7901C41.5223 33.6964 41.3701 33.647 41.2145 33.65C41.0588 33.653 40.9087 33.7082 40.7883 33.8067C40.0894 34.2424 39.3672 34.6418 38.6649 35.0644C38.5275 35.1798 38.3559 35.2472 38.1764 35.2561C37.9969 35.2651 37.8194 35.2151 37.6711 35.1139C37.5381 35.0102 37.4423 34.8664 37.3981 34.7039C37.3539 34.5415 37.3637 34.3691 37.426 34.2127C37.6281 33.3379 37.8334 32.4664 38.0024 31.5883C38.0129 31.4995 38.0038 31.4094 37.9758 31.3245C37.9478 31.2395 37.9014 31.1617 37.8401 31.0964C37.1775 30.4857 36.515 29.8981 35.8194 29.3105C35.6744 29.2213 35.564 29.0859 35.506 28.9262C35.448 28.7666 35.4459 28.5921 35.5 28.4311C35.5541 28.2701 35.6613 28.1321 35.804 28.0395C35.9468 27.9468 36.1168 27.905 36.2864 27.9208C37.1842 27.8481 38.0819 27.7623 38.9763 27.6501C39.0643 27.6326 39.1473 27.5961 39.2194 27.543C39.2916 27.49 39.3511 27.4217 39.3937 27.3431C39.768 26.5475 40.1159 25.7354 40.4571 24.9233C40.6028 24.5932 40.8082 24.3027 41.2157 24.3027C41.6231 24.3027 41.8252 24.5767 41.9743 24.9266C42.3055 25.7222 42.6699 26.5112 43.0045 27.3101C43.033 27.4166 43.0971 27.5103 43.1863 27.5757C43.2754 27.6411 43.3842 27.6743 43.4948 27.6699C44.3329 27.7293 45.1511 27.8481 46.0058 27.8977C46.1946 27.8959 46.3811 27.9391 46.5499 28.0234C46.7187 28.1078 46.8649 28.2311 46.9764 28.3829L46.9996 28.9408ZM44.4886 29.2445C43.826 29.1785 43.2728 29.1125 42.7229 29.0696C42.5469 29.0641 42.3768 29.0048 42.2357 28.8997C42.0947 28.7945 41.9895 28.6487 41.9345 28.4819C41.7258 27.9769 41.4939 27.4916 41.2356 26.8908C40.9772 27.485 40.7552 27.9802 40.5465 28.4819C40.4901 28.6485 40.3841 28.7939 40.2427 28.8988C40.1012 29.0038 39.931 29.0634 39.7548 29.0696C39.1983 29.1158 38.6451 29.1818 37.9825 29.2478C38.4529 29.6604 38.8405 30.0137 39.2446 30.3504C39.4093 30.4623 39.5327 30.6249 39.5961 30.8132C39.6595 31.0015 39.6594 31.2053 39.5958 31.3935C39.4567 31.8986 39.3672 32.4169 39.2347 33.0441C39.7714 32.7305 40.2119 32.4961 40.6293 32.2188C40.8045 32.0815 41.0209 32.0068 41.2438 32.0068C41.4667 32.0068 41.6832 32.0815 41.8583 32.2188C42.2857 32.4961 42.7362 32.7371 43.253 33.0375C43.1171 32.4334 43.0045 31.9184 42.8819 31.4034C42.8193 31.2155 42.8176 31.0126 42.8771 30.8237C42.9365 30.6347 43.0541 30.4691 43.2132 30.3504C43.6339 30.0269 44.0182 29.6638 44.4886 29.2445Z" fill="black"/>
<path id="Vector_3" d="M11.728 34.4012C11.9168 33.5429 12.1122 32.6054 12.3408 31.6778C12.3829 31.5667 12.3862 31.4447 12.3501 31.3315C12.314 31.2183 12.2407 31.1205 12.142 31.0539C11.4795 30.4828 10.817 29.8886 10.1545 29.3109C10.0137 29.2169 9.90796 29.0793 9.85348 28.9194C9.799 28.7595 9.79884 28.5862 9.853 28.4262C9.91521 28.2697 10.0258 28.1371 10.1688 28.0475C10.3117 27.9578 10.4796 27.9159 10.648 27.9277C11.5325 27.8584 12.4137 27.7759 13.2982 27.6636C13.3929 27.6437 13.4823 27.6039 13.5606 27.547C13.6388 27.4901 13.704 27.4174 13.752 27.3335C14.1296 26.5347 14.4708 25.7226 14.8121 24.9105C14.9611 24.5804 15.1731 24.2965 15.5839 24.3064C15.7527 24.3162 15.9142 24.3789 16.0451 24.4856C16.176 24.5924 16.2696 24.7376 16.3127 24.9006C16.644 25.6995 17.015 26.4851 17.3429 27.2873C17.3729 27.4018 17.441 27.5027 17.5362 27.5734C17.6313 27.6442 17.7477 27.6807 17.8663 27.6768C18.7641 27.7396 19.6618 27.8452 20.5595 27.9244C20.914 27.9574 21.222 28.1027 21.2684 28.4493C21.2797 28.5931 21.2624 28.7376 21.2175 28.8747C21.1726 29.0118 21.1009 29.1387 21.0067 29.2482C20.3906 29.8589 19.7214 30.4201 19.0523 30.9747C18.9274 31.0558 18.8337 31.1765 18.7862 31.3173C18.7387 31.458 18.7403 31.6106 18.7906 31.7504C19.0026 32.5592 19.1649 33.3779 19.3504 34.1933C19.4332 34.5564 19.4299 34.8964 19.0854 35.1308C18.9427 35.2211 18.7752 35.2646 18.6065 35.2551C18.4377 35.2456 18.2762 35.1837 18.1446 35.078C17.386 34.6224 16.6141 34.1867 15.8589 33.7245C15.7762 33.6613 15.6749 33.6271 15.5706 33.6271C15.4664 33.6271 15.3651 33.6613 15.2824 33.7245C14.4874 34.2098 13.6891 34.6851 12.8741 35.1374C12.2779 35.4675 11.6948 35.1176 11.728 34.4012ZM12.2911 29.2449C12.7814 29.6773 13.1855 30.0404 13.6162 30.3937C13.763 30.5037 13.8716 30.6568 13.9269 30.8314C13.9821 31.006 13.9812 31.1934 13.9243 31.3675C13.8116 31.8098 13.7156 32.2555 13.6195 32.6879C13.6143 32.7885 13.621 32.8893 13.6394 32.9883C14.1164 32.7078 14.547 32.4767 14.9644 32.2093C15.1396 32.0719 15.356 31.9973 15.5789 31.9973C15.8018 31.9973 16.0183 32.0719 16.1934 32.2093C16.6174 32.4833 17.0613 32.7243 17.5847 33.0313C17.4489 32.4272 17.3595 31.9353 17.227 31.4566C17.1489 31.2479 17.1436 31.019 17.2122 30.807C17.2807 30.5949 17.419 30.4121 17.6046 30.288C18.0021 29.9579 18.3698 29.6278 18.8237 29.2284C18.1413 29.1591 17.5847 29.093 17.0249 29.0468C16.856 29.0383 16.6936 28.9792 16.5589 28.8774C16.4241 28.7755 16.3233 28.6355 16.2696 28.4757C16.0543 27.964 15.8257 27.4557 15.5673 26.8648C15.3123 27.4524 15.087 27.964 14.8684 28.479C14.8149 28.6387 14.7141 28.7785 14.5792 28.8798C14.4444 28.9812 14.2818 29.0394 14.1131 29.0468C13.5433 29.1128 12.9702 29.1789 12.2911 29.2449Z" fill="black"/>
<path id="Vector_4" d="M32.2259 34.4967C32.236 34.6352 32.206 34.7737 32.1395 34.8957C32.0731 35.0178 31.9729 35.1183 31.8509 35.1853C31.7289 35.2524 31.5901 35.2832 31.4511 35.274C31.3121 35.2649 31.1786 35.2163 31.0664 35.1339C30.2813 34.6915 29.5062 34.2359 28.7476 33.7606C28.6481 33.6821 28.5249 33.6394 28.3981 33.6394C28.2712 33.6394 28.1481 33.6821 28.0486 33.7606C27.3231 34.2128 26.5745 34.6255 25.8424 35.0645C25.705 35.1795 25.5339 35.247 25.3548 35.2571C25.1757 35.2673 24.9981 35.2194 24.8486 35.1206C24.5173 34.8797 24.5173 34.5297 24.6067 34.1732C24.7956 33.3281 24.9711 32.4798 25.1865 31.6413C25.224 31.5364 25.2255 31.4221 25.1907 31.3164C25.1559 31.2106 25.0869 31.1193 24.9943 31.057C24.3318 30.4859 23.6693 29.8917 22.9902 29.3173C22.8494 29.2238 22.7428 29.0874 22.686 28.9286C22.6293 28.7698 22.6256 28.597 22.6755 28.4359C22.7321 28.2774 22.8391 28.1417 22.9802 28.0493C23.1213 27.9569 23.2888 27.913 23.4572 27.9242C24.355 27.8483 25.2527 27.7658 26.1471 27.6535C26.2353 27.6355 26.3185 27.5987 26.3911 27.5457C26.4637 27.4928 26.524 27.4248 26.5678 27.3465C26.9422 26.5476 27.2867 25.7389 27.6279 24.9268C27.777 24.5769 27.9823 24.3029 28.3898 24.3062C28.7973 24.3095 28.9993 24.5835 29.1484 24.9301C29.4797 25.7422 29.8341 26.5509 30.2084 27.3498C30.253 27.4269 30.3136 27.4936 30.3862 27.5454C30.4588 27.5972 30.5416 27.6329 30.6292 27.6502C31.5236 27.7625 32.4213 27.845 33.319 27.9209C33.4879 27.9119 33.6553 27.9571 33.7966 28.0497C33.9379 28.1424 34.0456 28.2777 34.1041 28.4359C34.1533 28.5982 34.1474 28.7721 34.0876 28.9308C34.0277 29.0895 33.9171 29.2241 33.7729 29.314C33.1269 29.8719 32.4942 30.4496 31.8383 30.9943C31.7204 31.0733 31.6323 31.1892 31.5879 31.3237C31.5435 31.4582 31.5454 31.6037 31.5931 31.737C31.8052 32.5623 31.9774 33.3876 32.1629 34.2227C32.206 34.335 32.2192 34.4373 32.2259 34.4967ZM31.6461 29.248C30.967 29.1786 30.4105 29.1126 29.8507 29.0664C29.6845 29.0551 29.5256 28.9948 29.394 28.893C29.2624 28.7913 29.1642 28.6529 29.112 28.4953C28.8966 27.9803 28.6681 27.4753 28.413 26.8877C28.1679 27.4455 27.9393 27.9242 27.7505 28.4161C27.6911 28.6053 27.5734 28.771 27.4139 28.8896C27.2545 29.0081 27.0616 29.0735 26.8627 29.0763C26.326 29.1126 25.7894 29.1786 25.16 29.2414C25.6138 29.6408 25.9782 29.9841 26.3691 30.2944C26.5544 30.4166 26.6932 30.5971 26.7635 30.8071C26.8337 31.0172 26.8313 31.2446 26.7567 31.4531C26.6175 31.9351 26.5413 32.4434 26.4254 33.0343C26.8991 32.757 27.2834 32.5722 27.6246 32.3246C27.8439 32.1311 28.1267 32.0242 28.4196 32.0242C28.7125 32.0242 28.9953 32.1311 29.2147 32.3246C29.5691 32.5821 29.9766 32.7736 30.437 33.0409C30.3078 32.4599 30.2217 31.9813 30.1058 31.5191C30.0227 31.2971 30.0174 31.0537 30.0908 30.8283C30.1642 30.603 30.3119 30.409 30.5099 30.2779C30.8511 29.9841 31.1989 29.6408 31.6461 29.248Z" fill="black"/>
<path id="Vector_5" d="M23.5019 12.1153C24.2482 12.1166 24.9774 12.3383 25.5975 12.7523C26.2175 13.1663 26.7005 13.7541 26.9855 14.4415C27.2705 15.1289 27.3447 15.885 27.1988 16.6144C27.0529 17.3438 26.6933 18.0137 26.1656 18.5396C25.6378 19.0655 24.9656 19.4238 24.2336 19.5692C23.5017 19.7146 22.7429 19.6407 22.0531 19.3567C21.3634 19.0726 20.7735 18.5913 20.358 17.9735C19.9426 17.3556 19.7201 16.6289 19.7188 15.8852C19.7157 15.3893 19.8115 14.8977 20.0005 14.4389C20.1895 13.9801 20.4681 13.5633 20.82 13.2126C21.1719 12.862 21.5902 12.5844 22.0505 12.396C22.5109 12.2077 23.0042 12.1122 23.5019 12.1153ZM25.8207 15.8654C25.8207 15.4083 25.6847 14.9616 25.4299 14.5816C25.1751 14.2016 24.813 13.9054 24.3893 13.7305C23.9656 13.5556 23.4993 13.5098 23.0495 13.599C22.5997 13.6882 22.1865 13.9082 21.8622 14.2314C21.5379 14.5546 21.317 14.9663 21.2276 15.4146C21.1381 15.8628 21.184 16.3274 21.3595 16.7497C21.535 17.1719 21.8323 17.5328 22.2136 17.7867C22.5949 18.0406 23.0432 18.1762 23.5019 18.1762C23.8056 18.1766 24.1064 18.117 24.3868 18.0008C24.6672 17.8846 24.9217 17.7141 25.1356 17.4991C25.3494 17.2842 25.5183 17.0291 25.6325 16.7487C25.7467 16.4683 25.8039 16.168 25.8009 15.8654H25.8207Z" fill="black"/>
<path id="Vector_6" d="M13.5442 12.1118C14.2904 12.1138 15.0193 12.336 15.6389 12.7504C16.2584 13.1648 16.7409 13.7528 17.0254 14.4403C17.3099 15.1277 17.3837 15.8837 17.2374 16.6129C17.0911 17.3421 16.7313 18.0117 16.2034 18.5373C15.6755 19.0629 15.0032 19.4208 14.2714 19.566C13.5395 19.7111 12.781 19.637 12.0914 19.3528C11.4018 19.0687 10.8121 18.5874 10.3968 17.9696C9.98147 17.3518 9.75912 16.6253 9.75781 15.8817C9.76131 14.8824 10.1615 13.925 10.8709 13.2187C11.5803 12.5123 12.5414 12.1144 13.5442 12.1118ZM13.5707 18.176C14.0281 18.1708 14.4738 18.0308 14.8517 17.7738C15.2295 17.5167 15.5226 17.154 15.694 16.7313C15.8655 16.3087 15.9077 15.8449 15.8152 15.3984C15.7228 14.9519 15.4998 14.5426 15.1745 14.2221C14.8492 13.9016 14.436 13.6841 13.9869 13.5971C13.5378 13.51 13.073 13.5573 12.6508 13.7329C12.2286 13.9086 11.868 14.2048 11.6144 14.5842C11.3607 14.9636 11.2254 15.4093 11.2253 15.8652C11.2253 16.17 11.2858 16.4719 11.4034 16.7533C11.521 17.0348 11.6933 17.2902 11.9103 17.505C12.1274 17.7198 12.385 17.8897 12.6683 18.0048C12.9515 18.12 13.2548 18.1781 13.5607 18.176H13.5707Z" fill="black"/>
<path id="Vector_7" d="M33.4432 12.1118C34.1893 12.1131 34.9182 12.3346 35.5381 12.7483C36.158 13.1621 36.641 13.7495 36.9262 14.4365C37.2114 15.1235 37.286 15.8793 37.1406 16.6085C36.9952 17.3377 36.6363 18.0076 36.1092 18.5338C35.5822 19.06 34.9105 19.4188 34.179 19.5649C33.4475 19.7111 32.6889 19.6381 31.999 19.355C31.3091 19.072 30.7188 18.5917 30.3026 17.9748C29.8863 17.3578 29.6628 16.6318 29.6602 15.8883C29.6628 14.8887 30.062 13.9306 30.7707 13.2231C31.4794 12.5157 32.4401 12.1162 33.4432 12.1118ZM33.4432 18.176C33.9032 18.1759 34.3529 18.0395 34.7349 17.7841C35.1169 17.5287 35.4141 17.1659 35.5885 16.7417C35.763 16.3175 35.807 15.8512 35.7148 15.4021C35.6226 14.953 35.3984 14.5413 35.0708 14.2195C34.7432 13.8977 34.3269 13.6803 33.8749 13.5949C33.423 13.5095 32.9557 13.56 32.5326 13.7399C32.1095 13.9199 31.7497 14.2212 31.4989 14.6055C31.2482 14.9899 31.1178 15.4398 31.1244 15.8982C31.1331 16.5076 31.3831 17.0889 31.8198 17.5155C32.2566 17.9421 32.8449 18.1795 33.4565 18.176H33.4432Z" fill="black"/>
</g>
</g>
<defs>
<clipPath id="clip0_1_340">
<rect width="47" height="40.6731" fill="white"/>
</clipPath>
</defs>
</svg>
