<svg width="12" height="12" viewBox="0 0 12 12" fill="none" xmlns="http://www.w3.org/2000/svg">
<g id="Home-Full 1" clip-path="url(#clip0_1_417)">
<path id="Vector" d="M11.7595 5.29518C11.3311 4.85819 10.8831 4.4417 10.4518 4.00951C10.3902 3.94197 10.3543 3.85488 10.3502 3.76347C10.3409 3.22587 10.3502 2.68796 10.3432 2.15037C10.3387 1.77393 10.0789 1.52436 9.70577 1.5218C9.48212 1.52019 9.25848 1.5218 9.03675 1.5218C8.71948 1.51923 8.39136 1.47694 8.17889 1.80309C7.64374 1.28183 7.13158 0.777882 6.61336 0.28162C6.22485 -0.0932197 5.76925 -0.0928994 5.38521 0.28162C3.68676 1.93412 1.98895 3.58779 0.291783 5.24264C0.233499 5.29699 0.181712 5.35795 0.137465 5.42429C-0.0302707 5.68764 -0.0449674 5.96637 0.0959309 6.24285C0.243858 6.53311 0.495622 6.6776 0.816397 6.68882C1.08605 6.69811 1.35635 6.69074 1.6506 6.69074V6.90283C1.6506 8.22342 1.64837 9.54401 1.6506 10.8643C1.6522 11.5483 2.10237 11.9978 2.77619 11.9984H4.27336C4.56889 11.9984 4.628 11.9401 4.628 11.646C4.628 10.6769 4.62481 9.70772 4.63088 8.7389C4.63407 8.25033 4.98232 7.82551 5.46157 7.74894C5.71717 7.70825 5.97948 7.72844 6.23859 7.71498C6.90761 7.6807 7.40252 8.20708 7.38686 8.8568C7.36386 9.80415 7.38047 10.7521 7.38143 11.7001C7.38143 11.9215 7.45875 11.9974 7.67792 11.9974C8.21404 11.9974 8.75026 11.9974 9.28659 11.9974C9.35084 11.9987 9.41506 11.9936 9.47829 11.9821C10.0173 11.8709 10.3454 11.4528 10.3464 10.8659C10.3487 9.54016 10.3487 8.21445 10.3464 6.88873V6.6901C10.6173 6.6901 10.8665 6.69458 11.1151 6.68786C11.2257 6.68823 11.3359 6.67281 11.4422 6.64204C11.574 6.59896 11.6925 6.5226 11.7864 6.42031C11.8803 6.31803 11.9463 6.19325 11.9782 6.05797C12.01 5.9227 12.0066 5.78148 11.9683 5.64789C11.9301 5.51431 11.8581 5.39284 11.7595 5.29518Z" fill="#252D5D"/>
</g>
<defs>
<clipPath id="clip0_1_417">
<rect width="12" height="12" fill="white"/>
</clipPath>
</defs>
</svg>
