<svg width="43" height="43" viewBox="0 0 43 43" fill="none" xmlns="http://www.w3.org/2000/svg">
<g id="Quality 1" clip-path="url(#clip0_1_319)">
<g id="JLZRL2.tif">
<path id="Vector" d="M43.0014 19.6627C42.7423 21.1299 41.9898 22.393 41.2952 23.6618C40.6489 24.7961 40.4286 26.1289 40.675 27.4149C40.8155 28.2337 40.89 29.0637 40.9837 29.8909C41.1036 30.9532 40.8901 32.0268 40.3734 32.959C39.8568 33.8912 39.0633 34.6345 38.106 35.0832C37.1137 35.5527 36.1048 35.983 35.0877 36.3994C34.2773 36.7255 33.592 37.3075 33.1334 38.0594C32.6042 38.8978 32.0529 39.7361 31.5016 40.5913C30.1537 42.6425 27.9872 43.4445 25.6525 42.7515C24.6271 42.4468 23.6073 42.1339 22.5846 41.8209C21.8766 41.6029 21.1206 41.6029 20.4126 41.8209C19.1529 42.1953 17.9098 42.6592 16.628 42.8996C14.58 43.288 12.9041 42.5251 11.6665 40.8344C11.0187 39.9401 10.4427 38.9928 9.85554 38.0538C9.40113 37.3126 8.72513 36.7379 7.92605 36.4134C6.99163 36.0277 6.06547 35.6197 5.14207 35.2089C2.85977 34.1973 1.71034 32.1349 2.03009 29.6198C2.15964 28.6082 2.27541 27.5909 2.39118 26.5765C2.49038 25.7877 2.34593 24.9871 1.97772 24.285C1.58906 23.536 1.18663 22.7899 0.853101 22.0158C0.519575 21.2417 0.265986 20.4424 -0.0234375 19.6544V18.4248C0.00963942 18.3018 0.0509857 18.1816 0.0757934 18.0559C0.272808 17.0758 0.752488 16.177 1.454 15.4737C2.2506 14.6912 3.06374 13.9199 3.87964 13.1598C4.49479 12.5988 4.92009 11.8557 5.09522 11.0359C5.33502 9.93766 5.5831 8.84219 5.86701 7.75789C6.1433 6.68782 6.75506 5.73774 7.61015 5.05074C8.46525 4.36375 9.51736 3.97706 10.608 3.9489C11.7106 3.90698 12.8132 3.83991 13.8964 3.76446C14.6348 3.70069 15.3374 3.41457 15.9141 2.94286C16.7879 2.26937 17.6589 1.59308 18.5548 0.955919C19.4081 0.325348 20.4376 -0.0127684 21.4935 -0.00925016C22.5494 -0.00573195 23.5767 0.339238 24.4259 0.975481C25.2832 1.59029 26.1266 2.23583 26.9591 2.88976C27.6661 3.45778 28.5379 3.77401 29.4398 3.78961C30.479 3.81755 31.5182 3.88742 32.5546 3.96567C34.8644 4.16129 36.6478 5.73183 37.1881 8.07368C37.4224 9.08252 37.6594 10.0914 37.8855 11.1002C38.0534 11.8725 38.4541 12.5728 39.0321 13.1039C39.7543 13.7774 40.4544 14.4732 41.1821 15.1411C42.1217 15.9578 42.7433 17.0874 42.9352 18.3269C42.9516 18.3657 42.9739 18.4015 43.0014 18.4331V19.6627ZM3.36695 30.3576C3.41105 32.0147 4.13047 33.1773 5.57208 33.8508C6.52855 34.3007 7.50156 34.7059 8.47458 35.1111C9.54056 35.5445 10.4411 36.3135 11.0436 37.3048C11.5948 38.2103 12.1792 39.1045 12.7773 39.9792C13.201 40.6348 13.8237 41.1328 14.5512 41.398C15.2787 41.6632 16.0715 41.6811 16.81 41.4492C17.8629 41.1474 18.9103 40.8176 19.9578 40.4934C20.9709 40.172 22.0567 40.172 23.0698 40.4934C24.0759 40.8064 25.0819 41.1222 26.1018 41.4157C27.8411 41.9215 29.3544 41.3514 30.355 39.8255C30.9062 38.9872 31.4575 38.1209 32.0088 37.2573C32.6103 36.2825 33.5038 35.5284 34.5585 35.1055C35.5343 34.7003 36.5045 34.2867 37.461 33.8452C38.1844 33.5316 38.7865 32.9864 39.1753 32.2929C39.5641 31.5995 39.7181 30.796 39.6137 30.0054C39.5255 29.1671 39.4428 28.3483 39.3078 27.5267C39.006 26.0221 39.2632 24.4576 40.03 23.1336C40.4544 22.407 40.7962 21.6301 41.1684 20.8728C41.9953 19.1961 41.7196 17.578 40.3662 16.2841C39.5503 15.5212 38.751 14.7806 37.9571 13.9982C37.27 13.3421 36.7903 12.494 36.5789 11.5613C36.3198 10.4435 36.0718 9.34241 35.8016 8.23856C35.637 7.46567 35.2282 6.76832 34.6372 6.25237C34.0462 5.73641 33.3053 5.43003 32.527 5.37972C31.4759 5.29588 30.4239 5.23533 29.3709 5.19807C28.2509 5.17845 27.1664 4.79659 26.2755 4.10819C25.4706 3.4878 24.6621 2.87392 23.8498 2.26657C22.2952 1.10124 20.6855 1.10683 19.1419 2.26657L16.6721 4.14173C16.0027 4.68516 15.1952 5.02525 14.343 5.12262C13.1357 5.22881 11.9228 5.30426 10.7128 5.35736C9.89126 5.36762 9.09722 5.65883 8.45935 6.1838C7.82148 6.70877 7.37714 7.43674 7.19836 8.24974C6.95855 9.2446 6.71874 10.2367 6.50925 11.2343C6.27878 12.3889 5.68603 13.4369 4.81958 14.2217C4.10291 14.8785 3.40554 15.5575 2.6999 16.2282C1.29137 17.5752 1.00746 19.1765 1.87297 20.9287C2.33054 21.8602 2.78994 22.7852 3.25118 23.7037C3.75072 24.7008 3.92908 25.8317 3.76111 26.937C3.61503 28.0884 3.4965 29.2509 3.36695 30.3576Z" fill="black"/>
<path id="Vector_2" d="M35.6932 21.5045C35.683 25.3093 34.1866 28.9552 31.5313 31.644C28.876 34.3329 25.2782 35.8459 21.5253 35.8518C13.7109 35.8741 7.30222 29.3712 7.32428 21.4877C7.32647 17.6737 8.823 14.0167 11.4847 11.3214C14.1463 8.626 17.7551 7.11301 21.517 7.11524C25.279 7.11746 28.886 8.63471 31.5446 11.3332C34.2031 14.0317 35.6954 17.6904 35.6932 21.5045ZM8.72178 21.5045C8.71687 24.0714 9.46338 26.5821 10.8668 28.7186C12.2702 30.8551 14.2674 32.5213 16.6054 33.5063C18.9435 34.4913 21.5172 34.7508 24.0008 34.2518C26.4844 33.7529 28.7661 32.518 30.557 30.7034C32.3479 28.8889 33.5674 26.5765 34.0611 24.0588C34.5549 21.5412 34.3007 18.9316 33.3306 16.5606C32.3606 14.1895 30.7184 12.1636 28.6119 10.7394C26.5055 9.31518 24.0296 8.55671 21.4977 8.56003C18.1104 8.56519 14.863 9.93078 12.4665 12.3579C10.0699 14.7849 8.71949 18.0758 8.71075 21.5101L8.72178 21.5045Z" fill="black"/>
<path id="Vector_3" d="M20.1127 23.698C22.1139 21.7894 24.2473 19.7521 26.378 17.7233C26.5559 17.534 26.7735 17.3879 27.0148 17.2957C27.201 17.2262 27.4056 17.227 27.5913 17.2978C27.777 17.3686 27.9314 17.5047 28.0264 17.6813C28.1351 17.8388 28.1888 18.0286 28.1788 18.2205C28.1688 18.4125 28.0958 18.5955 27.9712 18.7405C27.8824 18.8553 27.7837 18.9619 27.6763 19.0591L20.8073 25.6151C20.11 26.2774 19.6772 26.2635 19.0046 25.5648C17.8855 24.4041 16.7683 23.2425 15.6528 22.08C15.5307 21.9563 15.42 21.8216 15.3221 21.6776C15.2054 21.4999 15.1541 21.2862 15.1773 21.074C15.2006 20.8618 15.2968 20.6647 15.4491 20.5172C15.6014 20.3698 15.8001 20.2815 16.0103 20.2678C16.2204 20.2541 16.4286 20.3159 16.5983 20.4424C16.7441 20.5609 16.8831 20.6878 17.0145 20.8224L20.1127 23.698Z" fill="black"/>
</g>
</g>
<defs>
<clipPath id="clip0_1_319">
<rect width="43" height="43" fill="white"/>
</clipPath>
</defs>
</svg>
