<svg width="50" height="43" viewBox="0 0 50 43" fill="none" xmlns="http://www.w3.org/2000/svg">
<g id="Refund 2" clip-path="url(#clip0_1_333)">
<g id="YeysyR.tif">
<path id="Vector" d="M26.5623 0C27.4271 0.127606 28.2979 0.226855 29.1566 0.384843C33.6142 1.22347 37.6884 3.46665 40.7858 6.78776C43.8833 10.1089 45.8423 14.3344 46.3776 18.8492C46.4503 19.4913 46.4807 20.1374 46.5392 20.8869L47.8627 19.6007C48.1072 19.3637 48.3517 19.1247 48.6002 18.8877C49.1659 18.3469 49.4953 18.3611 50.0146 18.9485V19.4366C49.4933 19.9693 48.976 20.5101 48.4466 21.0347C47.7637 21.7099 47.0747 22.3783 46.3796 23.04C45.9755 23.4309 45.5896 23.4633 45.2239 23.0947C44.0883 21.9523 42.9649 20.7977 41.8536 19.6311C41.7824 19.5668 41.7258 19.488 41.6876 19.3999C41.6494 19.3118 41.6305 19.2166 41.6322 19.1205C41.6339 19.0245 41.6562 18.93 41.6976 18.8433C41.7389 18.7567 41.7983 18.6799 41.8718 18.6183C41.9398 18.5528 42.0202 18.5016 42.1083 18.4678C42.1964 18.4341 42.2904 18.4184 42.3847 18.4218C42.4789 18.4252 42.5715 18.4476 42.657 18.4876C42.7425 18.5276 42.819 18.5845 42.8821 18.6548C43.6135 19.3434 44.3369 20.0422 45.133 20.8018C45.0259 19.8154 44.9733 18.8512 44.8097 17.9074C43.4074 9.71628 37.1317 3.34611 28.9465 1.7642C24.531 0.901174 19.9539 1.56861 15.9666 3.65696C11.9793 5.7453 8.81871 9.13048 7.00357 13.2568C6.93334 13.4388 6.84889 13.6149 6.751 13.7835C6.6733 13.9297 6.54296 14.0409 6.38646 14.0943C6.22997 14.1477 6.05905 14.1394 5.90844 14.0711C5.74301 14.018 5.60509 13.9017 5.52454 13.7474C5.44399 13.5931 5.4273 13.4132 5.47807 13.2467C5.50987 13.1207 5.55668 12.999 5.61749 12.8841C9.16958 5.28046 15.1146 1.01207 23.4527 0.078994C23.58 0.0648156 23.7032 0.0263314 23.8285 0H26.5623Z" fill="black"/>
<path id="Vector_2" d="M0.0002698 22.9528C0.570059 22.3735 1.13379 21.7902 1.70964 21.219C2.34678 20.5898 2.98998 19.9666 3.63924 19.3495C4.05547 18.9545 4.42321 18.9282 4.79094 19.3009C5.91166 20.4351 7.02363 21.5789 8.12684 22.7321C8.20189 22.7963 8.26216 22.8761 8.30348 22.966C8.3448 23.0559 8.3662 23.1537 8.3662 23.2526C8.3662 23.3516 8.3448 23.4493 8.30348 23.5392C8.26216 23.6291 8.20189 23.7089 8.12684 23.7732C7.83386 24.0527 7.41763 24.0365 7.08626 23.7043C6.49829 23.1189 5.92648 22.5174 5.34659 21.9239C5.21977 21.7841 5.05572 21.6836 4.87378 21.6342C4.98491 22.6085 5.03745 23.5909 5.21323 24.553C6.79329 33.2038 13.5439 39.6287 22.2625 40.8035C26.5033 41.3653 30.8117 40.5371 34.5443 38.4424C38.277 36.3477 41.2336 33.099 42.9729 29.1812C43.0436 29.0171 43.1083 28.849 43.1931 28.6931C43.2299 28.6065 43.2837 28.5281 43.3512 28.4627C43.4187 28.3973 43.4986 28.346 43.5862 28.312C43.6737 28.2781 43.7672 28.262 43.8611 28.2648C43.9549 28.2677 44.0473 28.2893 44.1327 28.3285C44.2206 28.3638 44.2999 28.4175 44.3654 28.4862C44.4308 28.5548 44.4808 28.6367 44.512 28.7263C44.5432 28.8159 44.5549 28.9112 44.5463 29.0058C44.5377 29.1003 44.5089 29.1919 44.462 29.2744C44.1115 30.0959 43.7155 30.8973 43.276 31.6746C39.4551 38.0144 33.8704 41.6704 26.4833 42.2861C21.3195 42.7256 16.1741 41.2522 12.0209 38.1448C7.86777 35.0374 4.99502 30.5116 3.94636 25.4239C3.68369 24.1722 3.58469 22.888 3.40284 21.5755C3.13613 21.8287 2.84922 22.0981 2.56432 22.3715C2.1784 22.7442 1.7945 23.1209 1.40656 23.4916C0.836769 24.0385 0.503381 24.0243 -0.0078125 23.439L0.0002698 22.9528Z" fill="black"/>
<path id="Vector_3" d="M24.2153 13.1963C24.2153 12.5299 24.2153 11.9324 24.2153 11.3349C24.2274 10.6361 24.5952 10.2289 25.1872 10.231C25.7792 10.233 26.1126 10.6118 26.151 11.2781C26.1712 11.5901 26.151 11.902 26.151 12.2139V13.2267C26.8885 13.2267 27.5653 13.2267 28.2523 13.2267C29.1171 13.2267 29.5677 13.569 29.5737 14.203C29.5798 14.8369 29.1272 15.1914 28.2766 15.1934C26.7874 15.1934 25.2963 15.1934 23.8072 15.1934C22.1039 15.2056 20.8693 16.3844 20.8693 17.9785C20.8693 19.5725 22.1018 20.7514 23.8092 20.7736C24.7649 20.7858 25.7226 20.7595 26.6783 20.7736C29.305 20.8385 31.3437 22.7991 31.4165 25.3209C31.4892 27.9398 29.5697 30.0281 26.8986 30.2347C26.6783 30.2529 26.4581 30.259 26.1267 30.2773C26.1267 30.8626 26.1267 31.4277 26.1267 31.9949C26.1166 32.8253 25.7933 33.2426 25.169 33.2486C24.5447 33.2547 24.2012 32.8435 24.1951 32.0151C24.1951 31.4622 24.1951 30.9092 24.1951 30.2448C23.3869 30.2448 22.6171 30.261 21.8493 30.2448C21.1178 30.2246 20.637 29.7243 20.7602 29.1207C20.8835 28.5171 21.2956 28.2862 21.8796 28.2862C23.4132 28.2862 24.9467 28.2862 26.4823 28.2862C28.2119 28.2862 29.4343 27.1519 29.4566 25.5437C29.4788 23.9354 28.2442 22.7303 26.4945 22.708C25.5832 22.6938 24.676 22.708 23.7607 22.708C21.0633 22.6857 19.0347 20.7676 18.9114 18.1324C18.7922 15.6107 20.7481 13.4738 23.395 13.2489C23.6496 13.2246 23.892 13.2165 24.2153 13.1963Z" fill="black"/>
</g>
</g>
<defs>
<clipPath id="clip0_1_333">
<rect width="50" height="42.3611" fill="white"/>
</clipPath>
</defs>
</svg>
