<svg width="47" height="46" viewBox="0 0 47 46" fill="none" xmlns="http://www.w3.org/2000/svg">
<g id="Saving 1" clip-path="url(#clip0_1_326)">
<g id="tDvhrq.tif">
<path id="Vector" d="M0.015625 28.0284C0.111716 27.8839 0.240766 27.7643 0.392154 27.6793C0.543541 27.5944 0.712936 27.5467 0.886401 27.54C1.38943 27.4936 1.87564 27.335 2.30929 27.076C2.74295 26.817 3.113 26.4642 3.39223 26.0434C3.21996 25.9933 3.079 25.962 2.96624 25.9181C2.53906 25.7883 2.12058 25.6314 1.71333 25.4485C0.538717 24.8442 0.228621 23.836 0.867608 22.7966C1.55984 21.6663 2.74698 21.4033 3.81509 22.1704C4.1971 22.4534 4.51332 22.8156 4.74203 23.2323C4.97073 23.649 5.10652 24.1102 5.14005 24.5843C5.1457 24.7157 5.20313 24.8395 5.2998 24.9288C5.33738 24.8004 5.39063 24.672 5.41569 24.5405C6.12046 20.489 8.27234 17.4363 11.793 15.3292C12.2472 15.0568 12.6575 15.1226 12.8705 15.4889C13.0835 15.8552 12.9582 16.2184 12.479 16.5064C10.1392 17.9123 8.33812 19.8065 7.41409 22.3958C6.07034 26.153 6.14238 29.9101 7.95911 33.542C9.02206 35.6111 10.6993 37.3008 12.7609 38.3794C13.0665 38.529 13.3291 38.7537 13.5241 39.0324C13.7191 39.3112 13.8402 39.6348 13.876 39.973C14.1015 41.3726 14.4148 42.7565 14.6685 44.1529C14.6698 44.2208 14.6857 44.2877 14.7152 44.3489C14.7447 44.4101 14.7871 44.4643 14.8394 44.5076C14.8917 44.551 14.9528 44.5826 15.0184 44.6003C15.084 44.618 15.1527 44.6213 15.2198 44.61C16.1594 44.61 17.0991 44.5912 18.02 44.61C18.3896 44.61 18.5337 44.4597 18.5901 44.1185C18.7185 43.367 18.872 42.6187 19.0098 41.8704C19.1727 40.9937 19.5455 40.6713 20.4256 40.7558C22.8186 40.9897 25.2311 40.9351 27.6111 40.593C28.2939 40.4928 28.7606 40.8748 28.9016 41.5949C29.0613 42.4183 29.2305 43.2387 29.362 44.0684C29.4216 44.4566 29.5719 44.6225 29.9885 44.61C30.8875 44.585 31.7927 44.5818 32.6948 44.61C33.1145 44.6257 33.2523 44.4378 33.3213 44.0652C33.6126 42.4622 33.9477 40.8622 34.2234 39.2561C34.2534 39.0448 34.3356 38.8444 34.4625 38.6727C34.5893 38.5011 34.7569 38.3637 34.95 38.2729C37.2648 37.0487 39.2037 35.4144 40.5443 33.1319C40.8356 32.657 41.299 32.3126 41.838 32.1707C42.7401 31.8889 43.6422 31.6008 44.5443 31.3128C45.3743 31.0467 45.6312 30.7023 45.6312 29.8475C45.6312 28.9082 45.6312 27.9689 45.6312 27.0077C45.661 26.714 45.5818 26.4196 45.4085 26.1806C45.2352 25.9415 44.98 25.7746 44.6915 25.7115C44.1433 25.5268 43.5889 25.3483 43.0345 25.1824C42.6486 25.0799 42.2961 24.8788 42.0116 24.5988C41.7271 24.3188 41.5204 23.9696 41.412 23.5856C41.0175 22.3626 40.4064 21.2204 39.6078 20.2135C39.5169 20.0977 39.4167 19.9912 39.2945 19.8378C39.21 20.0225 39.1442 20.1509 39.0909 20.2887C38.4488 21.923 37.1865 22.5993 35.4919 22.5899C32.3596 22.5899 30.0887 20.3607 30.0355 17.2485C30.0355 16.4313 30.1295 15.611 30.1827 14.7218C29.8695 14.6498 29.5093 14.5559 29.1397 14.487C29.0902 14.486 29.0411 14.4961 28.996 14.5167C28.951 14.5373 28.9113 14.5678 28.8797 14.606C28.1537 15.6416 27.2322 16.5254 26.1671 17.2078C26.5868 17.3393 26.9345 17.4426 27.2759 17.5585C27.7614 17.7244 27.9525 18.0438 27.8272 18.4508C27.7019 18.8578 27.3355 19.0081 26.8531 18.8515C25.0442 18.2642 23.1545 17.9632 21.2525 17.9592C19.3986 17.9463 17.5539 18.2198 15.7836 18.7701C15.6396 18.8185 15.4933 18.8592 15.345 18.8922C15.264 18.9174 15.1788 18.9264 15.0943 18.9186C15.0098 18.9108 14.9277 18.8865 14.8526 18.8469C14.7776 18.8073 14.711 18.7534 14.6569 18.6881C14.6027 18.6228 14.5619 18.5475 14.5369 18.4664C14.5044 18.3836 14.4892 18.295 14.4923 18.2061C14.4954 18.1171 14.5166 18.0298 14.5548 17.9494C14.593 17.869 14.6472 17.7973 14.7141 17.7387C14.7811 17.6801 14.8594 17.6358 14.9441 17.6085C15.3231 17.4645 15.7209 17.3612 16.1657 17.2234C16.0342 17.117 15.9464 17.0418 15.8525 16.9761C14.6997 16.1724 13.7436 15.1185 13.0556 13.8934C12.3677 12.6683 11.9657 11.3036 11.8797 9.90128C11.7937 8.49899 12.026 7.09541 12.5591 5.79549C13.0923 4.49557 13.9125 3.33294 14.9585 2.39451C16.0045 1.45609 17.2492 0.76616 18.5995 0.376305C19.9498 -0.0135494 21.3708 -0.0932415 22.7563 0.143186C24.1418 0.379615 25.4558 0.926045 26.6003 1.74163C27.7447 2.55721 28.6899 3.62083 29.3652 4.85299C29.6784 5.42908 29.6283 5.82672 29.2148 6.04589C28.8233 6.25253 28.4913 6.08033 28.1686 5.52928C26.5367 2.74585 24.0967 1.33378 20.8704 1.38701C17.2025 1.44963 13.9982 4.24558 13.331 7.89942C13.0044 9.68872 13.3026 11.5359 14.1755 13.1317C15.0485 14.7276 16.4433 15.9753 18.1265 16.6661C18.3544 16.7463 18.5982 16.771 18.8376 16.7381C20.389 16.5565 21.9563 16.5565 23.5078 16.7381C23.7927 16.7709 24.0813 16.7277 24.3441 16.6129C27.2039 15.2854 28.8045 13.053 29.1083 9.91576C29.1459 9.53065 29.2148 9.17372 29.6627 9.07353C29.7672 9.04531 29.8771 9.0433 29.9826 9.06769C30.088 9.09207 30.1859 9.1421 30.2673 9.21333C30.3488 9.28457 30.4115 9.3748 30.4497 9.47603C30.4879 9.57726 30.5006 9.68636 30.4865 9.79365C30.4479 10.8482 30.2209 11.8874 29.8162 12.862L29.6847 13.2064C30.355 13.3035 30.9125 13.6291 31.658 13.2596C33.3953 12.3511 35.2416 11.6682 37.152 11.2276C37.2878 11.2005 37.4225 11.1786 37.5561 11.1619C39.1223 10.9615 39.7894 11.475 40.0244 13.0405C40.2195 14.664 40.1486 16.3084 39.8145 17.9091C39.7858 18.1208 39.8409 18.3354 39.968 18.5071C41.1984 19.833 42.1288 21.4081 42.6962 23.1253C42.7463 23.3097 42.8446 23.4775 42.9812 23.6112C43.1177 23.745 43.2875 23.8399 43.473 23.8861C43.827 23.9863 44.1684 24.1272 44.5223 24.1992C45.7408 24.481 46.6272 25.1385 47 26.3627V30.577C46.6272 31.8106 45.7471 32.4556 44.5286 32.7468C43.7617 32.9511 43.0059 33.1946 42.2639 33.4763C42.0226 33.556 41.813 33.7107 41.6657 33.9178C40.2436 36.2691 38.2515 37.988 35.8709 39.3281C35.6908 39.4461 35.563 39.6288 35.5139 39.8384C35.2288 41.2254 34.9344 42.6125 34.7183 44.012C34.5773 44.9262 34.2234 45.6244 33.3244 45.9657H29.3746C28.4913 45.6526 28.0809 44.9951 27.9713 44.0871C27.8899 43.3952 27.7145 42.7158 27.6017 42.1366H20.3755C20.2408 42.8379 20.0623 43.5204 19.984 44.2092C19.9589 44.615 19.8083 45.0029 19.553 45.3193C19.2976 45.6357 18.9502 45.8648 18.5588 45.9751H14.6873C13.8165 45.662 13.4093 45.0515 13.2683 44.1498C13.0616 42.8285 12.7546 41.5197 12.5229 40.2016C12.5021 40.0618 12.4472 39.9293 12.3631 39.8157C12.279 39.7021 12.1682 39.611 12.0405 39.5504C7.88394 37.1082 5.58484 33.4919 5.22462 28.6828C5.16824 27.8969 5.22462 27.1173 5.22462 26.3189L5.07114 26.2218C4.922 26.3173 4.78793 26.4344 4.67334 26.5694C3.79003 27.875 2.69373 28.8425 1.03675 28.9865C0.835309 29.0234 0.627325 28.9947 0.443472 28.9045C0.259619 28.8143 0.10963 28.6674 0.015625 28.4855V28.0284ZM38.7808 14.5058C38.7558 14.2271 38.7276 13.6792 38.6461 13.1375C38.5428 12.4518 38.4269 12.3798 37.7315 12.5113C35.7331 12.8902 33.8913 13.7105 32.0652 14.5559C31.9439 14.626 31.8386 14.7207 31.7561 14.834C31.6735 14.9472 31.6156 15.0764 31.586 15.2134C31.4598 15.917 31.399 16.6307 31.4043 17.3455C31.4701 19.6812 33.2837 21.3062 35.6141 21.2279C36.7073 21.1935 37.4433 20.7426 37.8505 19.6875C38.459 18.0273 38.7738 16.2739 38.7808 14.5058ZM3.77437 24.7785C3.65535 23.9957 3.41103 23.4635 2.80963 23.1691C2.40243 22.9688 2.18317 23.2506 2.00776 23.5449C1.83235 23.8392 1.96391 24.0771 2.24581 24.1961C2.71566 24.3996 3.19803 24.5593 3.77437 24.7785Z" fill="black"/>
<path id="Vector_2" d="M21.063 13.6794C20.5735 13.5803 20.0935 13.4388 19.6284 13.2567C19.27 13.0697 18.9585 12.8043 18.7169 12.4802C18.4945 12.189 18.6449 11.854 18.9143 11.6317C19.1836 11.4094 19.3998 11.5785 19.6034 11.7538C20.0126 12.1549 20.5509 12.3979 21.1225 12.4395C21.1225 11.5503 21.1225 10.6705 21.1225 9.79384C21.1225 9.70617 20.9753 9.59033 20.8719 9.5371C20.5994 9.39934 20.3081 9.30541 20.0388 9.16452C19.6545 8.97593 19.3359 8.67632 19.1241 8.30453C18.9122 7.93275 18.817 7.50593 18.8508 7.07941C18.8846 6.6529 19.0457 6.24635 19.3134 5.91249C19.5811 5.57862 19.9429 5.33283 20.352 5.20697C20.5726 5.15502 20.7839 5.06949 20.9784 4.95336L21.4984 4.41797L21.9432 4.8657L21.8774 4.92519C22.3723 5.05669 22.8735 5.16314 23.359 5.32595C23.4384 5.34345 23.5131 5.37763 23.5782 5.42621C23.6434 5.4748 23.6975 5.53667 23.7368 5.60773C23.7762 5.6788 23.8001 5.75742 23.8068 5.83839C23.8134 5.91936 23.8028 6.00083 23.7756 6.07738C23.7652 6.16202 23.734 6.24277 23.6849 6.31244C23.6357 6.38211 23.57 6.43853 23.4937 6.47666C23.4174 6.5148 23.3329 6.53346 23.2476 6.53099C23.1623 6.52851 23.079 6.50498 23.005 6.46249C22.6448 6.32786 22.2783 6.19949 21.843 6.04607C21.843 6.88517 21.843 7.61156 21.843 8.3442C21.843 8.435 21.9432 8.54458 22.0246 8.61033C22.1157 8.66558 22.2137 8.70873 22.3159 8.7387C23.5688 9.29289 24.117 10.1132 24.023 11.3155C23.9291 12.5178 23.2869 13.2379 21.9839 13.6637L21.4608 14.2523L21.0035 13.767L21.063 13.6794ZM21.7772 12.355C21.9163 12.3546 22.054 12.3267 22.1823 12.2729C22.3107 12.2191 22.4271 12.1404 22.5249 12.0415C22.6227 11.9426 22.7 11.8253 22.7523 11.6964C22.8046 11.5675 22.8309 11.4295 22.8296 11.2904C22.8491 10.9797 22.7521 10.6728 22.5575 10.4297C22.3629 10.1866 22.0847 10.0246 21.7772 9.97544V12.355ZM21.1883 6.16818C20.4553 6.21828 20.0325 6.59086 20.0638 7.15757C20.0859 7.44467 20.2156 7.71286 20.427 7.90848C20.6384 8.10411 20.9159 8.21276 21.204 8.2127L21.1883 6.16818Z" fill="black"/>
<path id="Vector_3" d="M37.2225 27.2331C36.6587 27.2315 36.1163 27.017 35.704 26.6327C35.2916 26.2483 35.0397 25.7225 34.9986 25.1604C34.9829 25.0699 34.9851 24.9773 35.0053 24.8877C35.0254 24.7981 35.0631 24.7133 35.116 24.6383C35.169 24.5633 35.2362 24.4994 35.3139 24.4504C35.3916 24.4014 35.4781 24.3681 35.5687 24.3526C35.6627 24.3345 35.7594 24.3369 35.8524 24.3597C35.9454 24.3824 36.0323 24.425 36.1073 24.4845C36.1822 24.5439 36.2435 24.6189 36.2867 24.7042C36.33 24.7896 36.3543 24.8832 36.358 24.9788C36.4583 25.558 36.7558 25.8618 37.2225 25.8649C37.6892 25.868 38.0056 25.5518 38.1027 24.9976C38.1052 24.9018 38.128 24.8076 38.1697 24.7213C38.2113 24.635 38.2708 24.5586 38.3443 24.497C38.4177 24.4354 38.5034 24.3901 38.5957 24.3642C38.688 24.3382 38.7847 24.3321 38.8795 24.3464C38.9707 24.3586 39.0586 24.3889 39.1379 24.4356C39.2171 24.4823 39.2863 24.5444 39.3411 24.6182C39.396 24.6921 39.4356 24.7762 39.4574 24.8655C39.4793 24.9549 39.483 25.0477 39.4684 25.1385C39.4339 25.7088 39.1816 26.2441 38.7637 26.6339C38.3458 27.0237 37.7941 27.2382 37.2225 27.2331Z" fill="black"/>
</g>
</g>
<defs>
<clipPath id="clip0_1_326">
<rect width="47" height="45.9783" fill="white"/>
</clipPath>
</defs>
</svg>
