<svg width="14" height="13" viewBox="0 0 14 13" fill="none" xmlns="http://www.w3.org/2000/svg">
<g id="Star 1" clip-path="url(#clip0_1_916)">
<g id="mMdEg9.tif">
<path id="Vector" d="M3.9021 8.04342L2.59447 7.13271C1.82271 6.59521 1.05083 6.05783 0.278843 5.52055C0.0856205 5.38651 -0.0251784 5.21205 0.00488594 4.97747C0.0427197 4.67785 0.272762 4.48926 0.599078 4.48861C1.59357 4.48631 2.58839 4.48861 3.58288 4.48861C3.92068 4.48861 4.25848 4.48072 4.59392 4.49288C4.73985 4.49813 4.7966 4.44327 4.84389 4.31809C5.33618 3.0232 5.83162 1.72995 6.33021 0.438348C6.47006 0.0743242 6.78287 -0.0820615 7.10885 0.0440984C7.29633 0.117363 7.39328 0.263893 7.4605 0.438348C7.8886 1.55232 8.3166 2.66662 8.74448 3.78126C8.81204 3.96031 8.89007 4.13674 8.94716 4.31875C8.98804 4.45017 9.0556 4.49189 9.19849 4.49123C10.5301 4.48532 11.8617 4.48455 13.1933 4.48893C13.6102 4.48893 13.8936 4.83982 13.7571 5.20351C13.7091 5.33164 13.595 5.45484 13.4784 5.53698C12.3421 6.33862 11.1986 7.13139 10.0575 7.92679C10.0031 7.96457 9.95077 8.00465 9.88861 8.04934C10.1201 8.65079 10.3504 9.24939 10.5794 9.84514C10.8665 10.5909 11.1564 11.3361 11.4408 12.0828C11.583 12.4561 11.3857 12.8056 11.0044 12.8671C10.8264 12.8953 10.6754 12.8273 10.5342 12.7291C9.58831 12.072 8.64246 11.4149 7.69662 10.7578C7.47266 10.6024 7.24431 10.4523 7.02609 10.2893C6.92846 10.2167 6.86124 10.2213 6.76294 10.2893C5.59955 11.1015 4.43425 11.9111 3.26703 12.7182C3.12583 12.8168 2.97889 12.8907 2.79952 12.8654C2.40024 12.8092 2.20093 12.4544 2.35125 12.0635C2.76968 10.9753 3.18934 9.88742 3.61024 8.79972C3.7082 8.55069 3.80346 8.301 3.9021 8.04342Z" fill="#EB963F"/>
</g>
</g>
<defs>
<clipPath id="clip0_1_916">
<rect width="13.7931" height="12.8736" fill="white"/>
</clipPath>
</defs>
</svg>
