<svg width="17" height="12" viewBox="0 0 17 12" fill="none" xmlns="http://www.w3.org/2000/svg">
<g id="tjrSco.tif">
<path id="Vector" d="M13.6619 11.3336H13.3285C13.3148 11.325 13.3021 11.3107 13.2875 11.3087C12.4622 11.191 11.9204 10.7541 11.7204 9.93094C11.711 9.89404 11.656 9.83553 11.632 9.83985C11.1636 9.92695 10.7011 9.59615 10.2297 9.82123C10.17 9.84949 10.0873 9.8332 10.0156 9.8332C8.61836 9.8332 7.221 9.83253 5.82353 9.8312C5.71083 9.8312 5.66249 9.8578 5.63348 9.97549C5.48578 10.5756 5.11968 10.9918 4.5332 11.2023C4.37416 11.2595 4.20578 11.2907 4.04174 11.3336H3.70832C3.67298 11.3198 3.63665 11.3087 3.59962 11.3003C3.16618 11.2428 2.79608 11.061 2.49934 10.7398C2.26594 10.4855 2.13858 10.177 2.06589 9.83187C1.76581 9.83187 1.47274 9.83187 1.17966 9.83187C0.536831 9.83353 -0.00430859 9.30159 2.58598e-05 8.65629C0.0146963 6.16438 0.0146963 3.67236 2.58598e-05 1.18024C-0.00397517 0.512989 0.560504 -0.000995934 1.19233 1.44908e-06C4.16043 0.00532082 7.12842 0.00532082 10.0963 1.44908e-06C10.7115 1.44908e-06 11.3049 0.479742 11.2829 1.18157C11.2649 1.75008 11.2793 2.31958 11.2793 2.88875V3.07826H11.482C12.4252 3.07826 13.3681 3.08092 14.3114 3.0756C14.3823 3.07186 14.453 3.08701 14.5161 3.11949C14.5792 3.15198 14.6325 3.20063 14.6705 3.26045C15.3944 4.27356 16.1217 5.28325 16.8524 6.2895C16.9521 6.42178 17.0041 6.58383 16.9997 6.74929C16.9941 7.45112 16.9964 8.15294 16.9911 8.85443C16.9867 9.43192 16.5816 9.8312 16.0045 9.8332C15.7711 9.8332 15.5404 9.8332 15.3073 9.8332C15.29 9.89304 15.274 9.93958 15.2633 9.98713C15.1023 10.6318 14.6965 11.046 14.063 11.2395C13.932 11.2797 13.7956 11.303 13.6619 11.3336ZM2.05256 9.27234C2.31929 8.34743 2.82275 7.86004 3.64663 7.79953C4.70924 7.72174 5.42376 8.18419 5.68049 9.23809H10.2657C10.2437 9.10511 10.2077 8.98509 10.2077 8.8664C10.2037 7.25884 10.2037 5.65117 10.2077 4.04339C10.2077 3.72423 10.336 3.44962 10.5991 3.25712C10.6828 3.19595 10.7051 3.13378 10.7048 3.0377C10.7011 2.42464 10.7031 1.81125 10.7028 1.19819C10.7028 0.792256 10.4981 0.583138 10.0946 0.583138C7.13253 0.583138 4.17055 0.583138 1.20867 0.583138C0.786896 0.583138 0.577508 0.794583 0.577508 1.21481V7.50963C0.75222 7.52492 0.910928 7.52891 1.06797 7.55551C1.22501 7.58211 1.28702 7.69215 1.27702 7.84608C1.26702 8.00001 1.16699 8.08878 0.966942 8.10773C0.842243 8.11936 0.715877 8.10972 0.576508 8.10972C0.576508 8.32017 0.576508 8.50867 0.576508 8.69352C0.579175 8.9811 0.700874 9.16861 0.988948 9.20917C1.34304 9.25904 1.7038 9.25405 2.05256 9.27234ZM15.3023 9.23909C15.3169 9.24402 15.3318 9.2478 15.347 9.25039C15.547 9.25039 15.7471 9.25117 15.9471 9.25272C16.2962 9.25272 16.4259 9.12472 16.4263 8.77631C16.4263 8.12402 16.4296 7.47206 16.4229 6.8201C16.4208 6.72878 16.3926 6.63996 16.3416 6.56411C15.7221 5.69506 15.0856 4.83797 14.4801 3.95961C14.3084 3.7106 14.1297 3.62715 13.8333 3.6348C12.9627 3.65574 12.0915 3.64178 11.2203 3.64278C10.9288 3.64278 10.8075 3.75847 10.7868 4.04838C10.7838 4.09226 10.7845 4.13681 10.7845 4.18136V8.74007C10.7845 8.79525 10.7845 8.85077 10.7898 8.9063C10.8075 9.11874 10.9068 9.23111 11.1232 9.2474C11.3096 9.2617 11.498 9.25039 11.6977 9.25039C11.7861 8.78229 11.9995 8.39464 12.3942 8.12202C12.789 7.8494 13.2204 7.75997 13.6882 7.78956C14.5064 7.84309 15.0662 8.34411 15.304 9.23942L15.3023 9.23909ZM14.7295 9.5403C14.7282 9.2167 14.5991 8.90664 14.3701 8.67732C14.1411 8.448 13.8307 8.31789 13.5062 8.31518C12.8297 8.31285 12.2662 8.87538 12.2725 9.54828C12.2782 10.2155 12.842 10.7724 13.5062 10.7667C13.8307 10.7633 14.1408 10.6329 14.3697 10.4035C14.5985 10.1741 14.7278 9.86419 14.7295 9.54063V9.5403ZM2.64237 9.55127C2.64538 10.2179 3.20919 10.7731 3.87603 10.7667C4.20073 10.7636 4.51099 10.6325 4.73906 10.402C4.96714 10.1715 5.0945 9.86043 5.09334 9.53664C5.08701 8.86407 4.5302 8.31418 3.86136 8.31984C3.5369 8.32514 3.22747 8.45713 2.99954 8.68745C2.77162 8.91777 2.64338 9.22803 2.64237 9.5516V9.55127Z" fill="#9C9C9C"/>
<path id="Vector_2" d="M13.7397 7.21579C13.2906 7.21579 12.8412 7.21579 12.3917 7.21579C11.6792 7.21413 11.1581 6.71976 11.1327 6.01594C11.1221 5.71805 11.1187 5.41984 11.1227 5.12129C11.1331 4.42312 11.6652 3.90847 12.3684 3.90747C12.7732 3.90747 13.1783 3.90747 13.5834 3.90747C13.7751 3.90747 13.9298 3.97828 14.0401 4.13288C14.5607 4.86163 15.0799 5.59139 15.5976 6.32214C15.7356 6.51663 15.7499 6.72275 15.6252 6.92755C15.5775 7.00948 15.5085 7.07706 15.4254 7.12316C15.3424 7.16927 15.2484 7.19219 15.1534 7.18953C14.6823 7.19219 14.2112 7.18953 13.7397 7.18953V7.21579ZM15.1384 6.63631L13.7047 4.64154C13.6802 4.59835 13.6499 4.55865 13.6147 4.52352C13.5786 4.49336 13.534 4.47532 13.487 4.47199C13.1046 4.469 12.7218 4.46401 12.3394 4.47531C11.9569 4.48662 11.6955 4.77453 11.6939 5.15486C11.6939 5.40355 11.7115 5.65356 11.6895 5.90024C11.6529 6.31216 11.9923 6.65426 12.4304 6.64296C13.1896 6.62335 13.9495 6.63731 14.709 6.63731L15.1384 6.63631Z" fill="#9C9C9C"/>
<path id="Vector_3" d="M12.8946 9.53587C12.8972 9.18181 13.147 8.93579 13.502 8.93579C13.8571 8.93579 14.1225 9.20175 14.1155 9.55482C14.1085 9.90788 13.8535 10.1549 13.5007 10.1532C13.1353 10.1512 12.8916 9.90323 12.8946 9.53587Z" fill="#9C9C9C"/>
<path id="Vector_4" d="M4.47714 9.54582C4.47714 9.90987 4.22541 10.1572 3.85964 10.1529C3.50555 10.1486 3.25682 9.8969 3.25782 9.5435C3.25882 9.19009 3.50955 8.93808 3.86198 8.93509C4.22474 8.93177 4.47714 9.18244 4.47714 9.54582Z" fill="#9C9C9C"/>
</g>
</svg>
