<svg width="13" height="10" viewBox="0 0 13 10" fill="none" xmlns="http://www.w3.org/2000/svg">
<g id="email 1" clip-path="url(#clip0_1_419)">
<path id="Vector" d="M0 0.991862L0.104781 0.668701L4.03154 4.56121L0.101729 8.45439C0.0752798 8.37572 0.037979 8.26382 0 8.15226V0.991862Z" fill="#252D5D"/>
<path id="Vector_2" d="M0.65625 0.0929273C0.811218 0.0590175 0.941092 0.0291768 1.07232 0.00543996C1.12275 -0.000392845 1.17359 -0.00164134 1.22424 0.00170986C4.73978 0.00170986 8.2551 0.00170986 11.7702 0.00170986C11.9607 -0.00444981 12.1501 0.0325292 12.3243 0.109882C12.2887 0.148539 12.2622 0.179398 12.2334 0.208221C10.4389 2.00861 8.64393 3.8091 6.84852 5.60971C6.62539 5.83352 6.37073 5.83352 6.14862 5.60971L0.764083 0.20856C0.734921 0.179397 0.707793 0.1482 0.65625 0.0929273Z" fill="#252D5D"/>
<path id="Vector_3" d="M0.671875 9.03125L4.59931 5.14111C4.61084 5.15196 4.64475 5.18181 4.67628 5.21334C4.9869 5.52463 5.2974 5.83626 5.60779 6.14823C6.13339 6.67451 6.86245 6.67384 7.38975 6.14823C7.73122 5.80914 8.07337 5.47004 8.40026 5.14417L12.3402 9.04956C12.187 9.08347 12.0584 9.11398 11.9289 9.1384C11.8785 9.14435 11.8277 9.14571 11.777 9.14247H1.21986C1.03369 9.14281 0.852275 9.1245 0.671875 9.03125Z" fill="#252D5D"/>
<path id="Vector_4" d="M12.9153 8.49473C11.5786 7.17225 10.2731 5.87655 8.96484 4.57984L12.9018 0.682251C12.9282 0.790423 12.9638 0.924029 12.9926 1.05933C12.999 1.10971 13.0002 1.16061 12.9964 1.21124C12.9964 3.45313 12.9954 5.69468 12.9933 7.9359C12.9926 8.11765 12.9442 8.29907 12.9153 8.49473Z" fill="#252D5D"/>
</g>
<defs>
<clipPath id="clip0_1_419">
<rect width="13" height="9.14378" fill="white"/>
</clipPath>
</defs>
</svg>
