<svg width="30" height="30" viewBox="0 0 30 30" fill="none" xmlns="http://www.w3.org/2000/svg">
<g id="Facebook 1" clip-path="url(#clip0_1_370)">
<g id="D7Sa9E.tif">
<path id="Vector" d="M13.828 -0.00500488H14.3539C14.5068 0.0431607 14.6707 0.0431607 14.8235 -0.00500488H15.1753C15.3276 0.0431341 15.491 0.0431341 15.6432 -0.00500488H16.1709C16.6073 0.0580866 17.0486 0.0564261 17.4867 0.094613C18.4364 0.20259 19.3673 0.437686 20.2544 0.7936C21.9638 1.41673 23.5434 2.35056 24.9137 3.54804C26.3043 4.74729 27.4629 6.19193 28.3318 7.81004C28.9935 9.03842 29.4836 10.3518 29.7887 11.7134C29.9214 12.3294 29.9198 12.957 29.9712 13.5796C29.9712 13.6543 29.9447 13.7357 29.9994 13.8054V14.3317C29.9513 14.4841 29.9513 14.6476 29.9994 14.7999V15.1502C29.9513 15.3026 29.9513 15.4661 29.9994 15.6184V16.2045C29.9347 16.6213 29.9413 17.043 29.9032 17.4614C29.7918 18.4094 29.5552 19.3384 29.1996 20.2241C28.5755 21.931 27.6404 23.5072 26.4419 24.873C25.2191 26.2836 23.7449 27.4547 22.0945 28.3264C20.7727 29.0257 19.3564 29.529 17.8899 29.8207C17.4652 29.8914 17.036 29.9325 16.6056 29.9435C15.2326 30.0324 13.8545 30.0074 12.4856 29.8688C11.1963 29.6952 9.94186 29.3222 8.76711 28.7631C7.42703 28.1695 6.18452 27.3763 5.08182 26.4104C3.68468 25.2031 2.52151 23.7488 1.65041 22.1202C0.99599 20.8985 0.509828 19.5939 0.205164 18.2417C0.0740796 17.6357 0.0790581 17.0181 0.0243014 16.4054C0.0243014 16.339 0.0458725 16.2693 -0.00390625 16.2095V15.6234C0.0425396 15.4708 0.0425396 15.3078 -0.00390625 15.1552V14.8049C0.0425396 14.6523 0.0425396 14.4893 -0.00390625 14.3367V13.7506C0.0591468 13.3438 0.0541686 12.9321 0.0890137 12.5236C0.193289 11.5858 0.424383 10.6664 0.775961 9.79078C1.40398 8.05205 2.35297 6.4469 3.57353 5.05892C4.81808 3.62765 6.3218 2.44467 8.0055 1.57228C9.18419 0.960259 10.4367 0.50268 11.7323 0.210835C12.3495 0.0763504 12.9767 0.07967 13.6006 0.0282007C13.677 0.0232198 13.7583 0.0531057 13.828 -0.00500488Z" fill="#3B5997"/>
<path id="Vector_2" d="M14.825 -0.00500488C14.7537 0.0362344 14.6727 0.0579455 14.5903 0.0579455C14.5078 0.0579455 14.4269 0.0362344 14.3555 -0.00500488H14.825Z" fill="#5E77AA"/>
<path id="Vector_3" d="M15.6437 -0.00500488C15.5726 0.0362519 15.4919 0.057981 15.4097 0.057981C15.3276 0.057981 15.2469 0.0362519 15.1758 -0.00500488H15.6437Z" fill="#5E77AA"/>
<path id="Vector_4" d="M0 14.3367C0.0412317 14.4078 0.0629476 14.4885 0.0629476 14.5708C0.0629476 14.653 0.0412317 14.7338 0 14.8049V14.3367Z" fill="#5E77AA"/>
<path id="Vector_5" d="M30.0049 14.8049C29.9633 14.7339 29.9414 14.6531 29.9414 14.5708C29.9414 14.4885 29.9633 14.4077 30.0049 14.3367V14.8049Z" fill="#5E77AA"/>
<path id="Vector_6" d="M0 15.1553C0.0412317 15.2264 0.0629476 15.3072 0.0629476 15.3894C0.0629476 15.4716 0.0412317 15.5524 0 15.6235V15.1553Z" fill="#5E77AA"/>
<path id="Vector_7" d="M30.0049 15.6235C29.9633 15.5525 29.9414 15.4717 29.9414 15.3894C29.9414 15.3071 29.9633 15.2263 30.0049 15.1553V15.6235Z" fill="#5E77AA"/>
<path id="Vector_8" d="M16.1005 20.4815C16.1005 22.0024 16.1005 23.5232 16.1005 25.044C16.1005 25.2781 16.0541 25.3645 15.7985 25.3611C14.637 25.3479 13.4755 25.3479 12.314 25.3611C12.0701 25.3611 12.027 25.2781 12.0286 25.059C12.0286 22.0073 12.0286 18.9557 12.0386 15.9057C12.0386 15.6152 11.9573 15.5454 11.6818 15.5604C11.2338 15.5836 10.7841 15.5604 10.3345 15.5687C10.1868 15.5687 10.1038 15.5521 10.1055 15.3694C10.1132 14.3556 10.1132 13.3417 10.1055 12.3278C10.1055 12.1518 10.1768 12.1153 10.3328 12.1186C10.7924 12.1186 11.2521 12.107 11.71 12.1186C11.9573 12.1285 12.0419 12.0737 12.0419 11.8031C12.004 11.0047 12.0134 10.2046 12.0701 9.4073C12.236 7.8599 12.8997 6.66116 14.4279 6.07839C14.9928 5.88351 15.5879 5.79129 16.1851 5.8061C17.0828 5.8061 17.9822 5.81939 18.8798 5.8061C19.0872 5.8061 19.1437 5.87418 19.142 6.07507C19.132 7.01979 19.142 7.96616 19.142 8.91253C19.142 9.10513 19.0823 9.16324 18.8898 9.15991C18.2858 9.14995 17.6802 9.15161 17.0745 9.15991C16.3909 9.15991 16.1138 9.43552 16.1038 10.1146C16.0939 10.7007 16.1038 11.2768 16.1038 11.8695C16.1038 12.0621 16.1586 12.1169 16.3494 12.1153C17.1791 12.1053 18.0087 12.1153 18.8383 12.1053C19.0789 12.1053 19.1337 12.175 19.1088 12.4025C18.9982 13.3798 18.8975 14.3589 18.8068 15.3396C18.7902 15.5172 18.7189 15.5604 18.548 15.5587C17.8361 15.5488 17.1226 15.5587 16.4108 15.5488C16.1719 15.5488 16.0989 15.6002 16.1005 15.8493C16.1072 17.4017 16.1005 18.9424 16.1005 20.4815Z" fill="#FEFEFE"/>
</g>
</g>
<defs>
<clipPath id="clip0_1_370">
<rect width="30" height="30" fill="white"/>
</clipPath>
</defs>
</svg>
