<svg width="16" height="23" viewBox="0 0 16 23" fill="none" xmlns="http://www.w3.org/2000/svg">
<g id="hand 1">
<g id="_x34_aJqex.tif">
<g id="Group">
<path id="Vector" d="M4.1582 16.1694C3.92705 16.121 3.71203 16.043 3.55077 15.8576C3.23631 15.5001 3.24437 15.0943 3.41639 14.6884C3.6314 14.1805 4.03994 13.9144 4.58017 13.831C5.3838 13.7074 6.18743 13.5811 7.01793 13.4494C6.96955 13.3983 6.9373 13.3634 6.89967 13.3258C5.54237 11.9685 4.18239 10.6085 2.82509 9.25117C2.45418 8.88027 2.32248 8.44755 2.48912 7.93957C2.73102 7.20044 3.72816 6.89136 4.31946 7.39396C4.71455 7.72992 5.06665 8.11427 5.43486 8.4798C5.47249 8.51743 5.49668 8.56849 5.53968 8.60343C5.70095 8.20834 5.95359 7.93957 6.33794 7.81324C6.72497 7.68692 7.08781 7.7568 7.43184 7.98795C7.5716 7.59285 7.82156 7.3187 8.21665 7.18969C8.60369 7.06337 8.96653 7.13056 9.31056 7.36171C9.39656 7.13056 9.51482 6.92898 9.70565 6.77578C10.2002 6.38069 10.8936 6.40219 11.3237 6.86717C12.1434 7.75143 12.9524 8.64375 13.7507 9.54414C14.2022 10.0521 14.4468 10.6622 14.5301 11.3395C14.5355 11.3825 14.5489 11.4255 14.557 11.4685C14.557 11.6567 14.557 11.8448 14.557 12.033C14.5489 12.076 14.5355 12.119 14.5301 12.162C14.4387 12.8796 14.1619 13.5139 13.6647 14.0434C13.2964 14.4358 12.9148 14.8121 12.5304 15.1883C12.0708 15.6399 11.5199 15.9382 10.8909 16.078C10.7001 16.121 10.5039 16.1398 10.3104 16.1694C8.26235 16.1694 6.21161 16.1694 4.1582 16.1694ZM7.34583 15.5404C8.24622 15.5404 9.14661 15.5378 10.047 15.5404C10.8291 15.5431 11.5172 15.2985 12.0843 14.7529C12.4552 14.3955 12.8261 14.038 13.1728 13.659C14.1055 12.6404 14.1968 11.2159 13.3905 10.0951C13.1647 9.78066 12.8825 9.50382 12.6218 9.21623C12.052 8.58462 11.4769 7.95569 10.9044 7.32677C10.727 7.13325 10.5039 7.07412 10.2728 7.16013C10.0551 7.24076 9.90992 7.43696 9.90185 7.67079C9.89379 7.83743 9.95292 7.97719 10.0658 8.09814C10.1599 8.20028 10.2109 8.31316 10.1599 8.45292C10.0739 8.67869 9.81316 8.72169 9.62233 8.53893C9.39656 8.32122 9.18155 8.09008 8.9504 7.88312C8.7757 7.72455 8.56068 7.70842 8.34835 7.81324C8.13602 7.91538 8.0312 8.09277 8.02851 8.32929C8.02583 8.5013 8.10377 8.63837 8.22203 8.75663C8.42092 8.95552 8.6225 9.15442 8.8187 9.356C8.95847 9.50113 8.96653 9.68659 8.84558 9.81291C8.71926 9.94461 8.53381 9.93923 8.37792 9.79678C8.34835 9.7699 8.32148 9.74034 8.29191 9.71077C7.90757 9.32643 7.5286 8.94209 7.14157 8.56312C6.83517 8.26478 6.38363 8.33466 6.20624 8.70019C6.09335 8.93402 6.14173 9.17592 6.34869 9.38556C6.73572 9.77528 7.12813 10.165 7.51785 10.5547C7.56085 10.5977 7.60654 10.6461 7.63611 10.6999C7.7463 10.8853 7.63611 11.1111 7.42378 11.1514C7.27595 11.1783 7.17919 11.1003 7.08244 11.0063C6.09067 10.0145 5.0989 9.02272 4.10982 8.03364C4.06144 7.98526 4.01575 7.93688 3.96199 7.89656C3.78729 7.76218 3.59109 7.74068 3.3922 7.82668C3.19868 7.91 3.08311 8.06589 3.05623 8.27822C3.02667 8.49861 3.12342 8.66525 3.27394 8.81576C4.79787 10.337 6.32181 11.861 7.84575 13.3849C7.95326 13.4924 8.02851 13.608 7.97745 13.7665C7.92907 13.9197 7.80006 13.9681 7.65761 13.9923C7.17919 14.0649 6.70347 14.1401 6.22505 14.2154C5.6687 14.3041 5.10965 14.3874 4.55598 14.4842C4.26302 14.5352 4.0695 14.718 3.97274 15.0002C3.87061 15.3039 3.96468 15.5539 4.36784 15.5512C5.35692 15.5324 6.35138 15.5404 7.34583 15.5404Z" fill="black"/>
<path id="Vector_2" d="M3.83522 5.526C3.94541 5.54482 4.05292 5.56094 4.16043 5.58513C5.06888 5.7894 5.73544 6.30544 6.14666 7.14132C6.24073 7.33215 6.19235 7.50685 6.03109 7.59286C5.87251 7.67886 5.69512 7.61974 5.59567 7.42891C5.42366 7.09832 5.20327 6.81342 4.90224 6.58765C3.84328 5.79209 2.27903 6.15224 1.67429 7.33752C1.126 8.41261 1.52378 9.69197 2.58543 10.2671C2.63381 10.2913 2.6795 10.3182 2.72519 10.3451C2.88914 10.4499 2.94021 10.6165 2.85689 10.7724C2.77626 10.9229 2.60155 10.974 2.42685 10.8934C2.04251 10.7133 1.71729 10.4633 1.44852 10.1354C1.09912 9.71078 0.886788 9.2243 0.822283 8.6787C0.819595 8.6572 0.806157 8.63838 0.800781 8.61957C0.800781 8.43949 0.800781 8.2621 0.800781 8.08202C0.811532 8.03902 0.822283 7.99602 0.830346 7.95301C1.02117 6.86449 1.62322 6.10655 2.658 5.71145C2.90527 5.61738 3.17673 5.58782 3.43475 5.52869C3.56645 5.526 3.70083 5.526 3.83522 5.526Z" fill="black"/>
</g>
</g>
</g>
</svg>
