<svg width="30" height="30" viewBox="0 0 30 30" fill="none" xmlns="http://www.w3.org/2000/svg">
<g id="Instagram 1" clip-path="url(#clip0_1_395)">
<g id="92i6Hf.tif">
<path id="Vector" d="M16.0545 4.82425e-05H16.2298C16.6424 0.0659591 17.0603 0.0646409 17.4756 0.0989146C18.6145 0.192508 19.6836 0.552382 20.7276 0.980803C22.1125 1.54339 23.4041 2.31275 24.5583 3.26264C24.9964 3.61985 25.4103 4.00561 25.7975 4.4174C25.8655 4.47333 25.9121 4.55112 25.9293 4.63754C25.9084 4.78327 25.8364 4.91685 25.7263 5.01455C24.9789 5.76462 24.2262 6.51073 23.4787 7.25552C23.4561 7.28711 23.4267 7.3133 23.3928 7.33221C23.3588 7.35113 23.3211 7.3623 23.2823 7.36493C23.2169 7.35025 23.1562 7.31944 23.1057 7.27529C22.5507 6.68473 21.8705 6.44482 21.0598 6.44745C16.9733 6.46195 12.8868 6.44745 8.79246 6.44745C8.13336 6.44745 7.54279 6.61487 7.05769 7.08942C6.57259 7.56398 6.4144 8.12291 6.41308 8.75829C6.41308 11.0573 6.41308 13.3562 6.41308 15.6552C6.41308 17.4269 6.42231 19.1999 6.41308 20.9729C6.41308 21.6992 6.58577 22.3386 7.09328 22.8698C7.12673 22.9057 7.15431 22.9466 7.17501 22.9911C7.19287 23.0178 7.20748 23.0466 7.21851 23.0768C7.21877 23.1401 7.20425 23.2027 7.1761 23.2594C7.14795 23.3162 7.10696 23.3656 7.05637 23.4037C6.31817 24.1516 5.57425 24.8937 4.82463 25.6302C4.75008 25.7083 4.65579 25.7647 4.55176 25.7936C4.27493 25.7462 4.13784 25.5128 3.97174 25.3322C2.84669 24.138 1.92012 22.7712 1.22721 21.284C0.727818 20.2247 0.365039 19.1062 0.147592 17.9555C0.0566345 17.4506 0.0816811 16.9299 0.00390625 16.4211V13.5091C0.0711354 13.1348 0.0684989 12.7551 0.102773 12.3781C0.206912 11.251 0.576012 10.1978 1.00048 9.16298C1.58287 7.75636 2.37779 6.44749 3.35745 5.28215C4.49021 3.92672 5.8508 2.77936 7.37802 1.89169C8.67796 1.13454 10.0844 0.577291 11.5502 0.238646C12.2027 0.0844149 12.8618 0.0870509 13.5209 0.0250947C13.5868 0.0250947 13.6527 0.046186 13.7173 -0.00390625H13.9506C13.9749 0.0179551 14.0063 0.0300559 14.039 0.0300559C14.0716 0.0300559 14.1031 0.0179551 14.1273 -0.00390625H15.8265C15.8594 0.0316856 15.9016 0.0237765 15.9438 0.0250947C15.986 0.0264129 16.0255 0.0356401 16.0545 4.82425e-05Z" fill="#EF5D4A"/>
<path id="Vector_2" d="M23.3146 7.31742C23.359 7.18782 23.4412 7.07444 23.5505 6.99182C24.2325 6.31338 24.9135 5.63406 25.5938 4.95386C25.6821 4.86422 25.7612 4.76535 25.8442 4.67176C26.0116 4.58739 26.1013 4.71526 26.1922 4.80358C26.5883 5.21886 26.9519 5.66397 27.2797 6.13498C28.5296 7.84814 29.3952 9.8108 29.8173 11.889C29.936 12.4756 29.9307 13.0754 29.9729 13.6673C29.9808 13.7714 29.9412 13.8795 30.0019 13.9797V14.507C29.9531 14.8171 29.9531 15.1328 30.0019 15.4429V15.9702C29.9386 16.4487 29.9307 16.9325 29.8964 17.4202C29.8331 18.289 29.5919 19.1142 29.3085 19.9249C28.7361 21.5889 27.8699 23.1368 26.7511 24.4951C24.5037 27.2607 21.3529 29.1451 17.8532 29.8168C17.4656 29.8807 17.074 29.9173 16.6813 29.9262C15.2589 29.996 13.83 30.033 12.4182 29.8497C10.7269 29.6296 9.14898 29.0245 7.65808 28.2046C6.61574 27.6248 5.64278 26.9283 4.758 26.1284C4.64463 26.0269 4.46272 25.9373 4.56554 25.7237C5.40656 24.8431 6.26209 23.9771 7.15452 23.1479C7.20901 23.1266 7.26789 23.1189 7.32602 23.1256C7.38416 23.1322 7.43978 23.153 7.48803 23.1861C7.90235 23.3916 8.35963 23.4955 8.82206 23.4893C12.9595 23.484 17.0974 23.484 21.2357 23.4893C22.0992 23.4893 22.7899 23.165 23.2526 22.415C23.4518 22.0662 23.5482 21.6681 23.5307 21.2668C23.5307 18.1031 23.5307 14.9372 23.5307 11.769C23.5307 10.7461 23.5307 9.72449 23.5307 8.70155C23.539 8.33945 23.4693 7.9798 23.3264 7.64698C23.2776 7.53888 23.2104 7.42815 23.3146 7.31742Z" fill="#D85443"/>
<path id="Vector_3" d="M29.9999 15.439C29.9063 15.134 29.9063 14.808 29.9999 14.5031V15.439Z" fill="#E26E5F"/>
<path id="Vector_4" d="M14.122 0C14.0626 0.0580016 14.0046 0.0790931 13.9453 0H14.122Z" fill="#F6A59A"/>
<path id="Vector_5" d="M15.9403 0.0500929C15.9177 0.0528215 15.8947 0.0496406 15.8737 0.0408614C15.8527 0.0320823 15.8343 0.018004 15.8203 0H15.9376C15.9811 0.0145004 15.9825 0.0250468 15.9403 0.0500929Z" fill="#F59C90"/>
<path id="Vector_6" d="M15.9414 0.0500929C15.9414 0.0329561 15.9414 0.0171368 15.9414 0H16.0587C16.0337 0.0527287 15.9875 0.0527294 15.9414 0.0500929Z" fill="#F7B0A7"/>
<path id="Vector_7" d="M7.14483 23.1005C6.53317 22.6299 6.26953 21.9972 6.26953 21.2484C6.26953 19.0575 6.26953 16.8662 6.26953 14.6745C6.26953 12.7077 6.26953 10.7405 6.26953 8.77281C6.26953 7.29245 7.24238 6.32092 8.72537 6.32092H21.2563C22.0539 6.32092 22.7235 6.58457 23.2047 7.24368C23.26 7.39791 23.173 7.50732 23.0729 7.59959C22.7459 7.92783 22.4137 8.2587 22.0868 8.58167C22.0463 8.63616 21.9915 8.67833 21.9284 8.70347C21.8653 8.72861 21.7965 8.73573 21.7296 8.72403C21.3236 8.47357 20.8754 8.43007 20.4114 8.44589C20.0317 8.45907 19.6508 8.4393 19.2724 8.44589C18.5975 8.47094 18.3642 8.70953 18.3602 9.37787C18.3602 9.86429 18.3708 10.3494 18.3602 10.8358C18.3327 11.1573 18.4145 11.4787 18.5922 11.748C18.6071 11.8137 18.605 11.882 18.5861 11.9466C18.5672 12.0112 18.5321 12.0699 18.4841 12.1171C18.2534 12.3505 18.0241 12.5838 17.7881 12.8105C17.747 12.8585 17.6947 12.8956 17.6359 12.9186C17.577 12.9416 17.5134 12.9497 17.4507 12.9423C17.2595 12.8764 17.1303 12.7235 16.9774 12.6049C16.0388 11.8785 15.0001 11.69 13.8915 12.1039C12.7828 12.5179 12.1066 13.3483 11.9141 14.5387C11.7507 15.5287 12.1079 16.3526 12.7301 17.0921C12.8188 17.1821 12.893 17.2852 12.9503 17.3979C12.9564 17.4608 12.9467 17.5243 12.9221 17.5826C12.8974 17.6408 12.8586 17.692 12.8092 17.7314C12.4006 18.148 11.9893 18.5619 11.5701 18.9666C11.5319 19.0174 11.4816 19.058 11.4239 19.0847C11.3662 19.1114 11.3027 19.1233 11.2392 19.1195C10.7462 18.8427 10.4246 18.4037 10.1253 17.9476C9.4003 16.839 9.20257 15.6104 9.30011 14.3146C9.32648 13.9771 9.30011 13.9494 8.95606 13.9442H8.74778C8.37868 13.9534 8.28904 14.0312 8.28904 14.3897C8.28904 16.4989 8.28904 18.5948 8.28904 20.6974C8.28904 21.0322 8.45909 21.2656 8.66342 21.4883C8.69911 21.5527 8.71101 21.6277 8.69703 21.7C8.68305 21.7723 8.64409 21.8373 8.58696 21.8838C8.21654 22.2648 7.83953 22.6378 7.4612 23.0096C7.42542 23.0569 7.37523 23.0914 7.31818 23.1078C7.26113 23.1242 7.2003 23.1216 7.14483 23.1005Z" fill="#FEFEFE"/>
<path id="Vector_8" d="M17.4741 12.8658C17.8804 12.5834 18.2331 12.2308 18.5155 11.8244C18.5708 11.7651 18.6368 11.7836 18.7013 11.7981C19.3991 11.8521 20.0993 11.8666 20.7986 11.8416C21.5223 11.8337 21.7636 11.5872 21.7688 10.8714C21.7741 10.1556 21.7807 9.45428 21.7412 8.7464C21.7462 8.713 21.7625 8.68232 21.7873 8.65939C22.2893 8.21585 22.7642 7.74264 23.2097 7.24231L23.3138 7.31745C23.6236 7.81442 23.7 8.36016 23.6987 8.93622C23.6908 13.0007 23.6908 17.0644 23.6987 21.1271C23.6987 21.9721 23.4351 22.6734 22.7417 23.1809C22.3552 23.4687 21.8856 23.6233 21.4037 23.6212H8.54448C8.0452 23.6051 7.56199 23.4408 7.15639 23.1492C7.15105 23.132 7.14709 23.1144 7.14453 23.0965C7.63491 22.6707 8.07387 22.1909 8.53261 21.7335C8.56621 21.6866 8.59285 21.6351 8.61171 21.5806C8.62558 21.5577 8.64487 21.5387 8.66786 21.5251C8.69086 21.5116 8.71685 21.5039 8.74353 21.5028C8.99627 21.5111 9.24927 21.5063 9.50151 21.4883C13.1714 21.4883 16.8418 21.4883 20.5126 21.4883C21.521 21.4883 21.6542 21.3565 21.6542 20.3362C21.6542 18.3975 21.6542 16.4588 21.6542 14.5202C21.6542 13.9929 21.3905 13.807 20.8843 13.9534C20.7143 14.0021 20.6998 14.1221 20.7011 14.271C20.7011 14.7983 20.7512 15.3256 20.6655 15.8463C20.4969 16.8114 20.0852 17.7175 19.4693 18.4794C18.8534 19.2412 18.0536 19.8336 17.1454 20.2007C16.2371 20.5678 15.2503 20.6975 14.278 20.5775C13.3057 20.4575 12.38 20.0918 11.5882 19.5149C11.449 19.442 11.3409 19.3212 11.2837 19.1748C11.2774 19.14 11.2835 19.1041 11.3009 19.0733C11.6963 18.5974 12.1696 18.1941 12.5954 17.7472C12.6955 17.6417 12.7931 17.535 12.892 17.4295C12.9004 17.4173 12.9116 17.4072 12.9247 17.4001C12.9377 17.393 12.9523 17.3891 12.9671 17.3886C13.1206 17.4178 13.2654 17.4819 13.3902 17.5758C13.962 17.9221 14.6305 18.074 15.2958 18.0089C15.9611 17.9438 16.5874 17.6652 17.0813 17.2146C17.5784 16.7749 17.9155 16.1825 18.0395 15.5304C18.1636 14.8783 18.0676 14.2036 17.7667 13.6119C17.6547 13.3865 17.5031 13.1822 17.4332 12.9331C17.4341 12.9194 17.4382 12.9061 17.4453 12.8944C17.4525 12.8827 17.4623 12.8729 17.4741 12.8658Z" fill="#F0F1F1"/>
<path id="Vector_9" d="M17.4742 12.8659C17.4742 12.8804 17.4742 12.8949 17.4742 12.9107C17.4928 12.9713 17.4922 13.0362 17.4724 13.0964C17.4525 13.1566 17.4145 13.2092 17.3634 13.2468C16.2377 14.3752 15.1225 15.5063 13.9743 16.6175C13.7449 16.8403 13.4971 17.0459 13.273 17.2766C13.2336 17.3264 13.1838 17.3669 13.1271 17.3954C13.0704 17.4238 13.0082 17.4395 12.9448 17.4414H12.9184H12.892C11.6015 16.3222 11.4209 14.6415 12.1617 13.376C12.4179 12.9434 12.7696 12.5751 13.19 12.2994C13.6104 12.0237 14.0883 11.8478 14.5872 11.7852C15.086 11.7226 15.5926 11.7749 16.0681 11.9383C16.5436 12.1016 16.9754 12.3715 17.3305 12.7275L17.4742 12.8659Z" fill="#EF5D4A"/>
<path id="Vector_10" d="M11.2964 19.0799C11.2951 19.0944 11.2951 19.109 11.2964 19.1234C11.2939 19.1674 11.2823 19.2104 11.2623 19.2496C11.2423 19.2889 11.2145 19.3236 11.1804 19.3515C10.4818 20.0304 9.83059 20.7594 9.08712 21.3921C8.9866 21.4846 8.86332 21.5487 8.72988 21.578L8.61124 21.5846C8.26718 21.3961 8.13932 21.1034 8.14064 20.7145C8.14854 18.5052 8.14854 16.295 8.14064 14.0839C8.14064 13.8532 8.19996 13.7768 8.43196 13.7952C8.69515 13.8171 8.9597 13.8171 9.22289 13.7952C9.48654 13.7728 9.5274 13.8532 9.48654 14.0997C9.29225 15.2015 9.45578 16.3365 9.95318 17.3386C10.2711 18.0085 10.7292 18.6023 11.2964 19.0799Z" fill="#EF5D4A"/>
<path id="Vector_11" d="M21.7848 8.65944C21.7881 8.67863 21.7881 8.69825 21.7848 8.71744C21.7677 8.86307 21.6961 8.99683 21.5844 9.09181C20.7258 9.94865 19.8677 10.8051 19.01 11.661C18.9132 11.7719 18.779 11.8432 18.6329 11.8614L18.5156 11.8245C18.4133 11.7343 18.3328 11.6221 18.2803 11.4963C18.2278 11.3704 18.2046 11.2343 18.2124 11.0981C18.223 10.4562 18.2124 9.8142 18.2124 9.17222C18.2124 8.64494 18.4945 8.34702 19.0165 8.33516C19.7086 8.31934 20.4007 8.33516 21.0927 8.33516C21.2249 8.33468 21.3555 8.36352 21.4752 8.41959C21.5949 8.47567 21.7006 8.55758 21.7848 8.65944Z" fill="#EF5D4A"/>
<path id="Vector_12" d="M8.73047 21.5779C9.34739 20.9715 9.96037 20.3599 10.5852 19.7601C10.8146 19.54 10.9938 19.2618 11.297 19.1234C12.0468 19.7504 12.9412 20.1804 13.8992 20.3744C17.1447 20.9979 20.0592 18.7833 20.5114 15.8239C20.6042 15.1519 20.5908 14.4696 20.4718 13.8018C20.8752 13.8018 21.2628 13.8018 21.6582 13.8018C21.7808 13.8018 21.8098 13.8611 21.8032 13.9639C21.8032 14.0127 21.8032 14.0614 21.8032 14.1102C21.8032 16.3222 21.8032 18.5333 21.8032 20.7435C21.8032 21.342 21.5106 21.6372 20.9042 21.6386C16.9627 21.6386 13.0204 21.6386 9.07716 21.6386C8.95808 21.6567 8.83633 21.6354 8.73047 21.5779Z" fill="#D85443"/>
<path id="Vector_13" d="M12.9414 17.4387C13.2416 17.1095 13.5589 16.7962 13.8918 16.5002C15.0664 15.3533 16.2211 14.1867 17.3825 13.0266C17.4141 12.9897 17.4436 12.951 17.4708 12.9106C17.9952 13.516 18.2693 14.2985 18.2372 15.0988C18.2051 15.8991 17.8693 16.6571 17.2981 17.2186C16.1183 18.3984 14.1634 18.4973 12.9414 17.4387Z" fill="#D85443"/>
<path id="Vector_14" d="M18.6328 11.8614C19.6654 10.7945 20.716 9.7465 21.7847 8.71741C21.874 8.86912 21.9167 9.04382 21.9073 9.21965C21.9073 9.83262 21.9073 10.4456 21.9073 11.0586C21.9073 11.6715 21.6225 11.9523 21.0135 11.9602C20.3795 11.9668 19.7454 11.9602 19.1113 11.9602C18.9454 11.9786 18.7779 11.944 18.6328 11.8614Z" fill="#D85443"/>
</g>
</g>
<defs>
<clipPath id="clip0_1_395">
<rect width="30" height="29.9895" fill="white"/>
</clipPath>
</defs>
</svg>
