<svg width="13" height="13" viewBox="0 0 13 13" fill="none" xmlns="http://www.w3.org/2000/svg">
<g id="phone 1" clip-path="url(#clip0_1_424)">
<g id="AsnCQT.tif">
<path id="Vector" d="M2.84375 0C3.69586 0.78 4.59367 1.51734 5.38281 2.35523C5.87844 2.87929 5.62148 3.71312 4.97656 4.08179C4.83031 4.16507 4.67188 4.23211 4.53273 4.32351C4.07773 4.61906 3.87258 5.1289 4.05539 5.64383C4.60992 7.1957 5.6875 8.26414 7.19773 8.88164C7.8518 9.14875 8.4307 8.88164 8.77602 8.26515C9.37727 7.18554 10.1634 7.07281 11.0409 7.94422C11.4471 8.35046 11.8706 8.74047 12.2545 9.16296C12.5298 9.46765 12.7522 9.82414 12.999 10.1583V10.5645C12.4851 11.6756 11.6472 12.4627 10.5615 13.002H9.54688C8.67648 12.6455 7.73094 12.4079 6.94992 11.9112C3.66437 9.81906 0.999375 7.19367 0 3.25203V2.43953C0.448906 1.35586 1.31422 0.654061 2.23438 0.00203013L2.84375 0Z" fill="#252D5D"/>
</g>
</g>
<defs>
<clipPath id="clip0_1_424">
<rect width="13" height="13" fill="white"/>
</clipPath>
</defs>
</svg>
