<svg width="30" height="30" viewBox="0 0 30 30" fill="none" xmlns="http://www.w3.org/2000/svg">
<g id="Twitter 1" clip-path="url(#clip0_1_380)">
<g id="X9IFdi.tif">
<path id="Vector" d="M13.7715 0H14.4165C14.5489 0.0474556 14.6936 0.0474556 14.826 0H15.177C15.3099 0.0474405 15.4551 0.0474405 15.588 0H15.8805C15.905 0.0207459 15.9361 0.0321275 15.9682 0.0321275C16.0004 0.0321275 16.0314 0.0207459 16.056 0H16.233C16.6646 0.06487 17.1026 0.0522132 17.5357 0.0996791C18.6297 0.240903 19.6983 0.53544 20.7103 0.974633C22.4571 1.68469 24.0536 2.7198 25.4152 4.0251C26.6866 5.22286 27.7414 6.63175 28.5328 8.18944C29.1491 9.38554 29.5895 10.6645 29.8402 11.9867C29.9122 12.5066 29.9565 13.03 29.973 13.5547C29.973 13.6195 29.9525 13.6907 30.0015 13.7509V13.9265C29.9808 13.951 29.9694 13.9821 29.9694 14.0143C29.9694 14.0464 29.9808 14.0775 30.0015 14.1021V14.3948C29.9561 14.5276 29.9561 14.6718 30.0015 14.8046V15.1543C29.9561 15.2871 29.9561 15.4312 30.0015 15.5641V16.208C29.9398 16.6115 29.9398 17.0181 29.9098 17.4231C29.844 18.0926 29.7024 18.7524 29.4877 19.3898C28.9212 21.2625 27.9895 23.0043 26.7463 24.5145C25.4933 26.0536 23.9513 27.3323 22.2074 28.2786C20.8302 29.0176 19.3496 29.5451 17.8156 29.8434C17.4219 29.9078 17.024 29.9433 16.6251 29.9494C15.2133 30.0158 13.7984 30.0411 12.3945 29.8608C11.1298 29.7025 9.92982 29.2769 8.76783 28.7532C7.4281 28.1627 6.18601 27.3715 5.08423 26.4068C3.74116 25.2403 2.61177 23.8482 1.74685 22.2931C1.02917 20.9951 0.506581 19.5983 0.195945 18.1478C0.0726316 17.575 0.0805363 16.988 0.0378508 16.4074C0.0378508 16.3425 0.0584027 16.2713 0.0078125 16.2112V15.5672C0.0552306 15.4347 0.0552306 15.2899 0.0078125 15.1574V14.7492C0.0312923 14.6937 0.043392 14.6339 0.043392 14.5736C0.043392 14.5133 0.0312923 14.4535 0.0078125 14.398V13.6955C0.0773741 13.3031 0.069471 12.9044 0.105833 12.5104C0.205432 11.4029 0.551659 10.357 0.962704 9.33495C1.66145 7.59457 2.68458 6.00308 3.97756 4.64532C5.13389 3.41544 6.48536 2.38526 7.97735 1.59644C9.2608 0.911082 10.6409 0.425065 12.0704 0.155056C12.5716 0.0864453 13.0761 0.0447211 13.5818 0.0300621C13.6403 0.0237333 13.7114 0.0506302 13.7715 0Z" fill="#41A0F1"/>
<path id="Vector_2" d="M14.8235 0C14.7628 0.0401467 14.6916 0.0615498 14.6188 0.0615498C14.546 0.0615498 14.4748 0.0401467 14.4141 0H14.8235Z" fill="#52A8F2"/>
<path id="Vector_3" d="M15.5868 0C15.5258 0.0402836 15.4544 0.0617586 15.3813 0.0617586C15.3082 0.0617586 15.2368 0.0402836 15.1758 0H15.5868Z" fill="#52A8F2"/>
<path id="Vector_4" d="M29.999 14.8062C29.9589 14.7454 29.9375 14.6741 29.9375 14.6013C29.9375 14.5284 29.9589 14.4572 29.999 14.3964V14.8062Z" fill="#51A8F2"/>
<path id="Vector_5" d="M0 15.1559C0.040511 15.2165 0.0621344 15.2878 0.0621344 15.3608C0.0621344 15.4337 0.040511 15.505 0 15.5657V15.1559Z" fill="#4FA7F2"/>
<path id="Vector_6" d="M29.999 15.5657C29.9589 15.5049 29.9375 15.4336 29.9375 15.3608C29.9375 15.2879 29.9589 15.2167 29.999 15.1559V15.5657Z" fill="#51A8F2"/>
<path id="Vector_7" d="M0 14.3964C0.0384635 14.4468 0.0592975 14.5085 0.0592975 14.572C0.0592975 14.6354 0.0384635 14.6972 0 14.7476V14.3964Z" fill="#4FA7F2"/>
<path id="Vector_8" d="M16.0544 0C15.9959 0.0806919 15.9374 0.0632878 15.8789 0H16.0544Z" fill="#A6D2F8"/>
<path id="Vector_9" d="M29.9988 14.1037C29.9356 14.0452 29.9198 13.9866 29.9988 13.9281V14.1037Z" fill="#A8D4F8"/>
<path id="Vector_10" d="M20.9831 10.7795C21.4529 10.6989 21.914 10.5739 22.3601 10.4061C22.3886 10.5643 22.2858 10.6308 22.2258 10.7083C21.9343 11.1006 21.5877 11.4486 21.1966 11.7415C21.1177 11.7947 21.0549 11.8686 21.015 11.9551C20.9751 12.0416 20.9597 12.1373 20.9705 12.232C21.0037 15.9422 18.6971 19.3518 15.257 20.5512C12.7559 21.4277 10.3054 21.2283 7.95932 19.9594C7.84866 19.8993 7.73957 19.836 7.62891 19.7743C7.63681 19.6161 7.73325 19.711 7.79649 19.7126C9.56872 19.8534 11.2572 19.1193 11.9765 18.4278C10.6264 18.2807 9.6952 17.5988 9.18456 16.3061C9.63038 16.3235 10.0367 16.3726 10.4398 16.2476C10.3671 16.1305 10.2343 16.1432 10.1331 16.102C8.92686 15.6163 8.25812 14.7255 8.11109 13.4376C8.08896 13.2382 8.13639 13.1876 8.32927 13.2794C8.60067 13.4137 8.89425 13.4973 9.19562 13.5262C9.35372 13.5578 9.35372 13.5547 9.36953 13.4613C8.20121 12.5342 7.8123 11.077 8.3846 9.77166C8.52846 9.44098 8.52688 9.44256 8.75928 9.70204C10.2041 11.3485 12.2137 12.3925 14.3906 12.6275C14.8459 12.6829 14.8475 12.6781 14.8222 12.2161C14.7526 10.8824 15.4072 9.74476 16.5612 9.19099C17.1148 8.92531 17.7354 8.83271 18.3423 8.92528C18.9492 9.01785 19.5141 9.2913 19.9634 9.70995C20.0176 9.76407 20.086 9.80182 20.1606 9.81889C20.2353 9.83596 20.3132 9.83165 20.3855 9.80646C20.9691 9.65654 21.5308 9.43158 22.0566 9.1372C21.8562 9.78558 21.4378 10.3446 20.8725 10.7194C20.8662 10.7985 20.8741 10.8032 20.9831 10.7795Z" fill="#FEFEFE"/>
<path id="Vector_11" d="M9.36921 13.4645C9.40716 13.4771 9.45617 13.5151 9.42929 13.542C9.35499 13.618 9.2712 13.5689 9.19531 13.5293C9.25223 13.5056 9.32653 13.5293 9.36921 13.4645Z" fill="#A2D1F8"/>
<path id="Vector_12" d="M7.79742 19.7125C7.74208 19.7363 7.66936 19.7125 7.62984 19.7743C7.59031 19.7632 7.54446 19.7284 7.56976 19.6999C7.64248 19.6224 7.72627 19.6777 7.79742 19.7125Z" fill="#83C1F6"/>
<path id="Vector_13" d="M20.9837 10.7795C20.9252 10.8159 20.8604 10.8633 20.8066 10.7937C20.7829 10.7621 20.8366 10.732 20.8762 10.7194L20.9837 10.7795Z" fill="#ACD5F8"/>
</g>
</g>
<defs>
<clipPath id="clip0_1_380">
<rect width="30" height="30" fill="white"/>
</clipPath>
</defs>
</svg>
