<svg width="14" height="13" viewBox="0 0 14 13" fill="none" xmlns="http://www.w3.org/2000/svg">
<g id="Wishlist 2" clip-path="url(#clip0_1_598)">
<path id="Vector" d="M12.8427 6.18516C12.8848 6.10724 12.9181 6.04616 12.9493 5.98383C13.5482 4.80024 13.6893 3.58591 13.1599 2.34167C12.323 0.378013 10.1251 -0.526734 8.25328 0.310621C7.66907 0.572189 7.18131 0.96433 6.73694 1.44787C6.67713 1.38343 6.63501 1.33583 6.59289 1.29076C5.60264 0.25081 4.39378 -0.168289 2.99159 0.131609C0.850187 0.589879 -0.397842 2.65041 0.114764 4.79519C0.391074 5.95139 0.9875 6.93954 1.72377 7.85061C3.05814 9.50215 4.69031 10.8142 6.45726 11.9713C6.65565 12.101 6.82118 12.109 7.01241 11.9713C7.60842 11.542 8.20905 11.1187 8.80801 10.6933C8.85771 10.6579 8.90825 10.6238 8.95543 10.5914C10.3033 11.8794 12.1507 11.6233 13.1452 10.6061C13.6548 10.0847 13.9509 9.46045 13.9939 8.7364C14.0566 7.69308 13.6472 6.84477 12.8427 6.18516ZM6.82329 11.2956C6.79613 11.3107 6.76579 11.3191 6.73475 11.3202C6.70371 11.3213 6.67285 11.3151 6.6447 11.302C4.76023 10.0181 3.00212 8.59403 1.6947 6.69061C1.20147 5.97456 0.848924 5.20123 0.696026 4.33607C0.389389 2.62346 1.63026 0.92221 3.36225 0.721716C4.64019 0.573873 5.64518 1.05068 6.38145 2.09906C6.61227 2.4276 6.84477 2.43602 7.08739 2.10622C7.57977 1.43987 8.18673 0.921367 9.00976 0.732246C10.2262 0.452988 11.2379 0.853975 12.0382 1.77304C13.0546 2.9402 13.0491 4.56184 12.2585 5.8364C10.9423 5.38824 9.76498 5.60811 8.85644 6.68429C8.00266 7.69518 7.95549 8.84001 8.55107 10.0598C7.97234 10.4747 7.40034 10.8888 6.82329 11.2956ZM11.0817 10.8268C10.6316 10.8257 10.1919 10.6912 9.81821 10.4403C9.44451 10.1894 9.15352 9.83346 8.98199 9.41734C8.81045 9.00121 8.76607 8.54358 8.85444 8.10224C8.94281 7.66091 9.15997 7.25565 9.4785 6.93765C9.79703 6.61965 10.2026 6.40316 10.6441 6.31553C11.0856 6.22789 11.5432 6.27303 11.959 6.44526C12.3749 6.61748 12.7303 6.90906 12.9806 7.28318C13.2308 7.6573 13.3646 8.09718 13.365 8.54728C13.3642 9.15227 13.1233 9.73221 12.6951 10.1596C12.267 10.5871 11.6867 10.8271 11.0817 10.8268Z" fill="white"/>
<path id="Vector_2" d="M12.1338 8.2144H11.4077C11.4077 8.0594 11.4077 7.94104 11.4077 7.82268C11.4116 7.66977 11.4066 7.51676 11.3929 7.36441C11.3702 7.19256 11.2623 7.08599 11.0812 7.08473C10.9001 7.08346 10.7927 7.18877 10.7716 7.36314C10.7535 7.5152 10.7552 7.66936 10.7518 7.82268C10.7489 7.94609 10.7518 8.06993 10.7518 8.21482C10.4949 8.21482 10.2519 8.20892 10.0093 8.21482C9.75653 8.22282 9.61038 8.3534 9.61333 8.55515C9.61627 8.74722 9.75653 8.86769 10.0025 8.88117C10.1209 8.88791 10.2401 8.88117 10.3593 8.88117H10.7586C10.7586 9.16337 10.743 9.41483 10.7632 9.66334C10.7839 9.91859 10.8972 10.0214 11.0918 10.0167C11.2864 10.0121 11.3866 9.90048 11.4043 9.64607C11.419 9.40304 11.4072 9.15874 11.4072 8.88032C11.6659 8.88032 11.9026 8.88032 12.1389 8.88032C12.3975 8.88032 12.5601 8.74638 12.5601 8.54336C12.5601 8.34034 12.3996 8.21482 12.1338 8.2144Z" fill="white"/>
</g>
<defs>
<clipPath id="clip0_1_598">
<rect width="14" height="12.0713" fill="white"/>
</clipPath>
</defs>
</svg>
